<svg width="223" height="42" viewBox="0 0 223 42" fill="none" xmlns="http://www.w3.org/2000/svg">
<rect width="223" height="42" fill="white"/>
<g clip-path="url(#clip0_2547_1910)">
<path d="M8.06756 2.09901C11.7618 0.419997 16.003 -0.386371 19.9763 0.707197C25.6237 2.2647 29.7197 7.34592 31.0255 12.8911C32.8672 20.7117 28.7934 29.2394 21.3601 32.5533C15.3222 35.2485 7.35326 34.2101 3.33532 28.6429C-0.961622 22.6779 0.857603 14.062 7.26397 10.3726C10.0654 8.75984 13.4806 8.32903 16.4717 9.75397C19.5186 11.201 21.4718 14.3492 20.8914 17.7293C20.4339 20.4135 18.3914 22.8106 15.6458 23.3738C14.8066 23.5456 13.9375 23.5093 13.1158 23.2685C12.2941 23.0276 11.5453 22.5895 10.9359 21.993C9.73053 20.8001 9.35107 18.7787 10.4002 17.3647C11.2149 20.4577 15.6905 20.4467 16.4717 17.3427C17.3982 13.6864 13.0118 12.5928 10.2997 13.3882C7.37559 14.2608 5.70145 17.0887 5.86886 20.0379C6.02512 22.7332 7.57647 25.2849 9.83098 26.743C12.4761 28.4551 15.8467 28.5986 18.7262 27.4057C21.7397 26.1575 23.9383 23.5506 25.0545 20.5571C26.9854 15.3765 25.1772 9.69875 20.9473 6.23027C16.5052 2.59609 10.1212 1.76763 4.80858 3.89953C5.84049 3.20758 6.93086 2.60517 8.06756 2.09901ZM52.5327 1.02753L50.5571 11.8969C51.8184 10.6487 54.1064 9.1354 57.4211 9.1354C62.7115 9.1354 66.7963 13.1451 66.7963 18.8449C66.7963 25.5278 61.64 32.8183 53.604 32.8183C49.9657 32.8183 47.912 30.9073 47.2312 29.615L45.8361 32.1997H40.5905L46.1487 1.03858H52.5215L52.5327 1.02753ZM55.6355 14.8352C51.4166 14.8352 48.8607 18.8008 48.8607 22.3576C48.8607 25.2075 50.7022 27.1184 53.4367 27.1184C57.5662 27.1184 60.3007 23.1529 60.3007 19.6845C60.3007 16.7904 58.4145 14.8352 55.6355 14.8352ZM81.4283 1.03858L75.8701 32.1997H69.4973L75.0555 1.03858H81.4283ZM96.1831 9.12436C101.92 9.12436 105.335 12.7806 105.335 18.2043C105.335 19.0549 105.29 19.8612 105.112 20.7891L104.755 22.921H88.4708C88.4708 23.0535 88.4263 23.186 88.4263 23.3187C88.4708 25.6383 90.2231 27.6377 93.2253 27.6377C96.1384 27.6377 97.9354 25.8593 98.6049 24.6994L103.627 26.257C101.518 30.0016 98.1585 32.7962 92.5446 32.7962C86.9864 32.7962 82.6337 29.0626 82.6337 23.186C82.6337 16.0613 88.3369 9.12436 96.1831 9.12436ZM95.6139 14.1724C92.2991 14.1724 90.145 16.2712 89.2856 18.624H99.9666V18.3147C100.011 16.7572 99.0737 14.1724 95.6139 14.1724ZM124.543 9.1354C129.03 9.1354 131.541 11.3225 131.541 16.0834C131.541 17.1107 131.407 18.2153 131.228 19.4193L128.94 32.1997H122.567L124.766 19.8723C124.855 19.2537 124.9 18.7124 124.9 18.2264C124.9 15.8625 123.639 15.023 121.719 15.023C119.163 15.023 117.143 16.6688 116.563 20.1374L114.364 32.1997H107.991L112.031 9.76503H117.233L117.59 12.1289C119.074 10.6598 121.317 9.14645 124.543 9.14645V9.1354ZM163.339 1.02753L157.78 32.1887H152.535L152.133 29.6923C150.972 30.9404 148.673 32.8072 145.046 32.8072C139.711 32.8072 135.67 28.7533 135.67 22.9651C135.67 16.5143 140.782 9.12436 148.773 9.12436C152.088 9.12436 154.153 10.7702 154.968 12.1068L156.988 1.02753H163.36H163.339ZM148.952 14.8352C145.235 14.8352 142.088 18.3037 142.088 22.2692C142.088 25.1634 144.019 27.1184 146.753 27.1184C150.927 27.1184 153.528 23.1529 153.528 19.5961C153.528 16.7021 151.686 14.8352 148.952 14.8352ZM176.341 9.76503L171.988 34.5195C171.095 39.1478 167.501 41.5558 163.908 41.5558C160.448 41.5558 158.974 40.1309 158.439 39.5122L161.754 34.9723C162.066 35.3258 162.513 35.6902 163.506 35.6902C164.768 35.6902 165.527 34.8839 165.749 33.5031L169.967 9.77608H176.341V9.76503ZM174.455 0.0112903C176.341 0.0112903 177.725 1.52461 177.725 3.30303C177.725 5.08147 176.018 6.94827 174.008 6.94827C172.077 6.94827 170.682 5.52331 170.682 3.7007C170.682 1.70135 172.478 0.000244141 174.455 0.000244141V0.0112903ZM192.759 9.12436C198.496 9.12436 201.91 12.7806 201.91 18.2043C201.91 19.0549 201.865 19.8943 201.687 20.7891L201.33 22.921H185.047C185.047 23.0535 185.002 23.186 185.002 23.3187C185.047 25.6383 186.799 27.6377 189.801 27.6377C192.714 27.6377 194.511 25.8593 195.181 24.6994L200.203 26.257C198.094 30.0016 194.723 32.7962 189.121 32.7962C183.551 32.7962 179.209 29.0626 179.209 23.186C179.209 16.0613 184.901 9.12436 192.759 9.12436ZM192.189 14.1724C188.863 14.1724 186.72 16.2712 185.862 18.624H196.531V18.3147C196.576 16.7572 195.639 14.1724 192.178 14.1724H192.189ZM217.703 3.92162L216.666 9.75397H222L221.018 15.277H215.682L213.975 24.843C213.93 25.0197 213.93 25.2849 213.93 25.4617C213.93 26.4005 214.422 26.9306 215.46 26.9306C216.397 26.9306 217.079 26.533 217.524 26.1686L219.411 30.841C218.519 31.6474 216.542 32.7962 213.171 32.7962C209.488 32.7962 207.345 30.4323 207.345 27.008C207.345 26.522 207.39 26.0692 207.48 25.5389L209.321 15.255H205.548L206.543 9.73188H210.314L211.352 3.89953H217.726L217.703 3.92162Z" fill="#050505"/>
</g>
<defs>
<clipPath id="clip0_2547_1910">
<rect width="221" height="41.5556" fill="white" transform="translate(1)"/>
</clipPath>
</defs>
</svg>
