<svg xmlns="http://www.w3.org/2000/svg" width="134" height="46" viewBox="0 0 134 46" fill="none"><g clip-path="url(#clip0_343_2318)"><path d="M47.6157 0H51.2957V23H47.6157V0ZM64.1757 15.663C64.1757 19.1829 61.2161 19.4635 60.3356 19.4635C58.1359 19.4635 57.7357 17.4046 57.7357 16.1626V7.36H54.0557V16.1442C54.0557 18.3246 54.7402 20.1241 55.9399 21.3238C56.9997 22.3845 58.5876 22.9641 60.308 22.9641C61.528 22.9641 63.2557 22.5842 64.1757 21.7442V23H67.8557V7.36H64.1757V15.663ZM75.2157 1.84H71.5357V7.36H68.7757V11.04H71.5357V23H75.2157V11.04H77.9757V7.36H75.2157V1.84ZM89.565 18.3236C88.7636 19.044 87.7056 19.4433 86.5446 19.4433C83.9852 19.4433 82.1056 17.5637 82.1056 14.9831C82.1056 12.4025 83.9254 10.6021 86.5446 10.6021C87.6854 10.6021 88.7636 10.982 89.5852 11.7024L90.1436 12.1826L92.6249 9.70232L92.0039 9.14204C90.5438 7.82368 88.6054 7.084 86.5437 7.084C81.9437 7.084 78.6032 10.4034 78.6032 14.9638C78.6032 19.5049 82.0237 22.943 86.5437 22.943C88.644 22.943 90.6027 22.2033 92.0444 20.8638L92.6442 20.3035L90.1243 17.825L89.565 18.3236ZM105.76 8.72344C104.7 7.6636 103.458 7.084 101.737 7.084C100.518 7.084 99.1357 7.46396 98.2157 8.303V0H94.5357V23H98.2157V14.3842C98.2157 10.8643 100.716 10.5846 101.597 10.5846C103.796 10.5846 103.736 12.6445 103.736 13.8846V23H107.416V13.904C107.416 11.7236 106.96 9.92404 105.76 8.72344Z" fill="black"></path><path d="M86.4238 12.3633C87.1295 12.3633 87.8062 12.6436 88.3052 13.1426C88.8041 13.6415 89.0845 14.3183 89.0845 15.0239C89.0845 15.7296 88.8041 16.4063 88.3052 16.9053C87.8062 17.4042 87.1295 17.6846 86.4238 17.6846C85.7182 17.6846 85.0414 17.4042 84.5425 16.9053C84.0435 16.4063 83.7632 15.7296 83.7632 15.0239C83.7632 14.3183 84.0435 13.6415 84.5425 13.1426C85.0414 12.6436 85.7182 12.3633 86.4238 12.3633Z" fill="black"></path><path d="M42.4636 17.2229C41.0643 18.6627 39.1636 19.4428 37.1635 19.4428C33.064 19.4428 30.0832 16.2228 30.0832 11.8032C30.0832 7.36323 33.064 4.14323 37.1635 4.14323C39.1443 4.14323 41.0238 4.92247 42.4443 6.34295L43.0037 6.90323L45.4637 4.44315L44.9237 3.88287C42.8841 1.78251 40.1241 0.643555 37.1635 0.643555C31.1237 0.643555 26.5835 5.44319 26.5835 11.8225C26.5835 18.1824 31.1439 22.9628 37.1635 22.9628C40.1443 22.9628 42.9043 21.8036 44.9439 19.7032L45.484 19.1429L43.0441 16.6433L42.4636 17.2229Z" fill="black"></path></g><path d="M6.216 41L3.892 37.01H2.352V41H1.078V31.242H4.228C4.96533 31.242 5.586 31.368 6.09 31.62C6.60333 31.872 6.986 32.2127 7.238 32.642C7.49 33.0713 7.616 33.5613 7.616 34.112C7.616 34.784 7.42 35.3767 7.028 35.89C6.64533 36.4033 6.06667 36.744 5.292 36.912L7.742 41H6.216ZM2.352 35.988H4.228C4.91867 35.988 5.43667 35.82 5.782 35.484C6.12733 35.1387 6.3 34.6813 6.3 34.112C6.3 33.5333 6.12733 33.0853 5.782 32.768C5.446 32.4507 4.928 32.292 4.228 32.292H2.352V35.988ZM16.5956 36.87C16.5956 37.1127 16.5816 37.3693 16.5536 37.64H10.4216C10.4682 38.396 10.7249 38.9887 11.1916 39.418C11.6676 39.838 12.2416 40.048 12.9136 40.048C13.4642 40.048 13.9216 39.922 14.2856 39.67C14.6589 39.4087 14.9202 39.0633 15.0696 38.634H16.4416C16.2362 39.3713 15.8256 39.9733 15.2096 40.44C14.5936 40.8973 13.8282 41.126 12.9136 41.126C12.1856 41.126 11.5322 40.9627 10.9536 40.636C10.3842 40.3093 9.93624 39.8473 9.60958 39.25C9.28291 38.6433 9.11958 37.9433 9.11958 37.15C9.11958 36.3567 9.27824 35.6613 9.59558 35.064C9.91291 34.4667 10.3562 34.0093 10.9256 33.692C11.5042 33.3653 12.1669 33.202 12.9136 33.202C13.6416 33.202 14.2856 33.3607 14.8456 33.678C15.4056 33.9953 15.8349 34.434 16.1336 34.994C16.4416 35.5447 16.5956 36.17 16.5956 36.87ZM15.2796 36.604C15.2796 36.1187 15.1722 35.7033 14.9576 35.358C14.7429 35.0033 14.4489 34.7373 14.0756 34.56C13.7116 34.3733 13.3056 34.28 12.8576 34.28C12.2136 34.28 11.6629 34.4853 11.2056 34.896C10.7576 35.3067 10.5009 35.876 10.4356 36.604H15.2796ZM21.1332 39.824L23.5132 33.328H24.8712L21.8612 41H20.3772L17.3672 33.328H18.7392L21.1332 39.824ZM26.7829 32.082C26.5402 32.082 26.3349 31.998 26.1669 31.83C25.9989 31.662 25.9149 31.4567 25.9149 31.214C25.9149 30.9713 25.9989 30.766 26.1669 30.598C26.3349 30.43 26.5402 30.346 26.7829 30.346C27.0162 30.346 27.2122 30.43 27.3709 30.598C27.5389 30.766 27.6229 30.9713 27.6229 31.214C27.6229 31.4567 27.5389 31.662 27.3709 31.83C27.2122 31.998 27.0162 32.082 26.7829 32.082ZM27.3989 33.328V41H26.1249V33.328H27.3989ZM36.5702 36.87C36.5702 37.1127 36.5562 37.3693 36.5282 37.64H30.3962C30.4429 38.396 30.6995 38.9887 31.1662 39.418C31.6422 39.838 32.2162 40.048 32.8882 40.048C33.4389 40.048 33.8962 39.922 34.2602 39.67C34.6335 39.4087 34.8949 39.0633 35.0442 38.634H36.4162C36.2109 39.3713 35.8002 39.9733 35.1842 40.44C34.5682 40.8973 33.8029 41.126 32.8882 41.126C32.1602 41.126 31.5069 40.9627 30.9282 40.636C30.3589 40.3093 29.9109 39.8473 29.5842 39.25C29.2575 38.6433 29.0942 37.9433 29.0942 37.15C29.0942 36.3567 29.2529 35.6613 29.5702 35.064C29.8875 34.4667 30.3309 34.0093 30.9002 33.692C31.4789 33.3653 32.1415 33.202 32.8882 33.202C33.6162 33.202 34.2602 33.3607 34.8202 33.678C35.3802 33.9953 35.8095 34.434 36.1082 34.994C36.4162 35.5447 36.5702 36.17 36.5702 36.87ZM35.2542 36.604C35.2542 36.1187 35.1469 35.7033 34.9322 35.358C34.7175 35.0033 34.4235 34.7373 34.0502 34.56C33.6862 34.3733 33.2802 34.28 32.8322 34.28C32.1882 34.28 31.6375 34.4853 31.1802 34.896C30.7322 35.3067 30.4755 35.876 30.4102 36.604H35.2542ZM48.4718 33.328L46.0778 41H44.7618L42.9138 34.91L41.0658 41H39.7498L37.3418 33.328H38.6438L40.4078 39.768L42.3118 33.328H43.6138L45.4758 39.782L47.2118 33.328H48.4718ZM52.4522 41.126C51.8642 41.126 51.3369 41.028 50.8702 40.832C50.4035 40.6267 50.0349 40.3467 49.7642 39.992C49.4935 39.628 49.3442 39.2127 49.3162 38.746H50.6322C50.6695 39.1287 50.8469 39.4413 51.1642 39.684C51.4909 39.9267 51.9155 40.048 52.4382 40.048C52.9235 40.048 53.3062 39.9407 53.5862 39.726C53.8662 39.5113 54.0062 39.2407 54.0062 38.914C54.0062 38.578 53.8569 38.3307 53.5582 38.172C53.2595 38.004 52.7975 37.8407 52.1722 37.682C51.6029 37.5327 51.1362 37.3833 50.7722 37.234C50.4175 37.0753 50.1095 36.8467 49.8482 36.548C49.5962 36.24 49.4702 35.8387 49.4702 35.344C49.4702 34.952 49.5869 34.5927 49.8202 34.266C50.0535 33.9393 50.3849 33.6827 50.8142 33.496C51.2435 33.3 51.7335 33.202 52.2842 33.202C53.1335 33.202 53.8195 33.4167 54.3422 33.846C54.8649 34.2753 55.1449 34.8633 55.1822 35.61H53.9082C53.8802 35.2087 53.7169 34.8867 53.4182 34.644C53.1289 34.4013 52.7369 34.28 52.2422 34.28C51.7849 34.28 51.4209 34.378 51.1502 34.574C50.8795 34.77 50.7442 35.0267 50.7442 35.344C50.7442 35.596 50.8235 35.806 50.9822 35.974C51.1502 36.1327 51.3555 36.2633 51.5982 36.366C51.8502 36.4593 52.1955 36.5667 52.6342 36.688C53.1849 36.8373 53.6329 36.9867 53.9782 37.136C54.3235 37.276 54.6175 37.4907 54.8602 37.78C55.1122 38.0693 55.2429 38.4473 55.2522 38.914C55.2522 39.334 55.1355 39.712 54.9022 40.048C54.6689 40.384 54.3375 40.65 53.9082 40.846C53.4882 41.0327 53.0029 41.126 52.4522 41.126Z" fill="black"></path><g clip-path="url(#clip1_343_2318)"><path d="M73.9682 34.3076C73.9305 34.1965 73.8611 34.0989 73.7685 34.0268C73.676 33.9548 73.5644 33.9114 73.4474 33.902L70.0268 33.6302L68.5466 30.3536C68.4995 30.2481 68.4228 30.1584 68.3258 30.0955C68.2289 30.0326 68.1158 29.9991 68.0002 29.999C67.8846 29.999 67.7715 30.0323 67.6745 30.0952C67.5774 30.158 67.5007 30.2475 67.4534 30.353L65.9732 33.6302L62.5526 33.902C62.4377 33.9111 62.3278 33.9531 62.2361 34.023C62.1445 34.093 62.0749 34.1878 62.0357 34.2962C61.9965 34.4046 61.9894 34.5221 62.0152 34.6344C62.041 34.7468 62.0987 34.8493 62.1812 34.9298L64.709 37.394L63.815 41.2652C63.7879 41.3824 63.7966 41.505 63.84 41.6172C63.8834 41.7294 63.9595 41.8259 64.0585 41.8943C64.1575 41.9626 64.2747 41.9997 64.395 42.0006C64.5152 42.0015 64.633 41.9663 64.733 41.8994L68 39.7214L71.267 41.8994C71.3692 41.9673 71.4897 42.0022 71.6124 41.9995C71.735 41.9968 71.8539 41.9566 71.9531 41.8844C72.0522 41.8121 72.1268 41.7112 72.1669 41.5952C72.207 41.4793 72.2106 41.3539 72.1772 41.2358L71.0798 37.3958L73.8014 34.9466C73.9796 34.7858 74.045 34.535 73.9682 34.3076Z" fill="black"></path></g><g clip-path="url(#clip2_343_2318)"><path d="M88.9682 34.3076C88.9305 34.1965 88.8611 34.0989 88.7685 34.0268C88.676 33.9548 88.5644 33.9114 88.4474 33.902L85.0268 33.6302L83.5466 30.3536C83.4995 30.2481 83.4228 30.1584 83.3258 30.0955C83.2289 30.0326 83.1158 29.9991 83.0002 29.999C82.8846 29.999 82.7715 30.0323 82.6745 30.0952C82.5774 30.158 82.5007 30.2475 82.4534 30.353L80.9732 33.6302L77.5526 33.902C77.4377 33.9111 77.3278 33.9531 77.2361 34.023C77.1445 34.093 77.0749 34.1878 77.0357 34.2962C76.9965 34.4046 76.9894 34.5221 77.0152 34.6344C77.041 34.7468 77.0987 34.8493 77.1812 34.9298L79.709 37.394L78.815 41.2652C78.7879 41.3824 78.7966 41.505 78.84 41.6172C78.8834 41.7294 78.9595 41.8259 79.0585 41.8943C79.1575 41.9626 79.2747 41.9997 79.395 42.0006C79.5152 42.0015 79.633 41.9663 79.733 41.8994L83 39.7214L86.267 41.8994C86.3692 41.9673 86.4897 42.0022 86.6124 41.9995C86.735 41.9968 86.8539 41.9566 86.9531 41.8844C87.0522 41.8121 87.1268 41.7112 87.1669 41.5952C87.207 41.4793 87.2106 41.3539 87.1772 41.2358L86.0798 37.3958L88.8014 34.9466C88.9796 34.7858 89.045 34.535 88.9682 34.3076Z" fill="black"></path></g><g clip-path="url(#clip3_343_2318)"><path d="M103.968 34.3076C103.931 34.1965 103.861 34.0989 103.769 34.0268C103.676 33.9548 103.564 33.9114 103.447 33.902L100.027 33.6302L98.5466 30.3536C98.4995 30.2481 98.4228 30.1584 98.3258 30.0955C98.2289 30.0326 98.1158 29.9991 98.0002 29.999C97.8846 29.999 97.7715 30.0323 97.6745 30.0952C97.5774 30.158 97.5007 30.2475 97.4534 30.353L95.9732 33.6302L92.5526 33.902C92.4377 33.9111 92.3278 33.9531 92.2361 34.023C92.1445 34.093 92.0749 34.1878 92.0357 34.2962C91.9965 34.4046 91.9894 34.5221 92.0152 34.6344C92.041 34.7468 92.0987 34.8493 92.1812 34.9298L94.709 37.394L93.815 41.2652C93.7879 41.3824 93.7966 41.505 93.84 41.6172C93.8834 41.7294 93.9595 41.8259 94.0585 41.8943C94.1575 41.9626 94.2747 41.9997 94.395 42.0006C94.5152 42.0015 94.633 41.9663 94.733 41.8994L98 39.7214L101.267 41.8994C101.369 41.9673 101.49 42.0022 101.612 41.9995C101.735 41.9968 101.854 41.9566 101.953 41.8844C102.052 41.8121 102.127 41.7112 102.167 41.5952C102.207 41.4793 102.211 41.3539 102.177 41.2358L101.08 37.3958L103.801 34.9466C103.98 34.7858 104.045 34.535 103.968 34.3076Z" fill="black"></path></g><g clip-path="url(#clip4_343_2318)"><path d="M118.968 34.3076C118.931 34.1965 118.861 34.0989 118.769 34.0268C118.676 33.9548 118.564 33.9114 118.447 33.902L115.027 33.6302L113.547 30.3536C113.499 30.2481 113.423 30.1584 113.326 30.0955C113.229 30.0326 113.116 29.9991 113 29.999C112.885 29.999 112.771 30.0323 112.674 30.0952C112.577 30.158 112.501 30.2475 112.453 30.353L110.973 33.6302L107.553 33.902C107.438 33.9111 107.328 33.9531 107.236 34.023C107.144 34.093 107.075 34.1878 107.036 34.2962C106.997 34.4046 106.989 34.5221 107.015 34.6344C107.041 34.7468 107.099 34.8493 107.181 34.9298L109.709 37.394L108.815 41.2652C108.788 41.3824 108.797 41.505 108.84 41.6172C108.883 41.7294 108.96 41.8259 109.058 41.8943C109.157 41.9626 109.275 41.9997 109.395 42.0006C109.515 42.0015 109.633 41.9663 109.733 41.8994L113 39.7214L116.267 41.8994C116.369 41.9673 116.49 42.0022 116.612 41.9995C116.735 41.9968 116.854 41.9566 116.953 41.8844C117.052 41.8121 117.127 41.7112 117.167 41.5952C117.207 41.4793 117.211 41.3539 117.177 41.2358L116.08 37.3958L118.801 34.9466C118.98 34.7858 119.045 34.535 118.968 34.3076Z" fill="black"></path></g><g clip-path="url(#clip5_343_2318)"><path d="M133.968 34.3076C133.931 34.1965 133.861 34.0989 133.769 34.0268C133.676 33.9548 133.564 33.9114 133.447 33.902L130.027 33.6302L128.547 30.3536C128.499 30.2481 128.423 30.1584 128.326 30.0955C128.229 30.0326 128.116 29.9991 128 29.999C127.885 29.999 127.771 30.0323 127.674 30.0952C127.577 30.158 127.501 30.2475 127.453 30.353L125.973 33.6302L122.553 33.902C122.438 33.9111 122.328 33.9531 122.236 34.023C122.144 34.093 122.075 34.1878 122.036 34.2962C121.997 34.4046 121.989 34.5221 122.015 34.6344C122.041 34.7468 122.099 34.8493 122.181 34.9298L124.709 37.394L123.815 41.2652C123.788 41.3824 123.797 41.505 123.84 41.6172C123.883 41.7294 123.96 41.8259 124.058 41.8943C124.157 41.9626 124.275 41.9997 124.395 42.0006C124.515 42.0015 124.633 41.9663 124.733 41.8994L128 39.7214L131.267 41.8994C131.369 41.9673 131.49 42.0022 131.612 41.9995C131.735 41.9968 131.854 41.9566 131.953 41.8844C132.052 41.8121 132.127 41.7112 132.167 41.5952C132.207 41.4793 132.211 41.3539 132.177 41.2358L131.08 37.3958L133.801 34.9466C133.98 34.7858 134.045 34.535 133.968 34.3076Z" fill="black"></path></g><defs><clipPath id="clip0_343_2318"><rect width="80.872" height="23" fill="white" transform="translate(26.564)"></rect></clipPath><clipPath id="clip1_343_2318"><rect width="12" height="12" fill="white" transform="translate(62 30)"></rect></clipPath><clipPath id="clip2_343_2318"><rect width="12" height="12" fill="white" transform="translate(77 30)"></rect></clipPath><clipPath id="clip3_343_2318"><rect width="12" height="12" fill="white" transform="translate(92 30)"></rect></clipPath><clipPath id="clip4_343_2318"><rect width="12" height="12" fill="white" transform="translate(107 30)"></rect></clipPath><clipPath id="clip5_343_2318"><rect width="12" height="12" fill="white" transform="translate(122 30)"></rect></clipPath></defs></svg>