<svg width="174" height="42" viewBox="0 0 174 42" fill="none" xmlns="http://www.w3.org/2000/svg">
<g clip-path="url(#clip0_2547_1906)">
<rect width="174" height="42" fill="white"/>
<path d="M41.2225 29.2626C42.7407 50.4785 3.7174 40.9687 2.50574 24.0368C2.64527 21.4023 4.12248 18.9317 4.95294 18.1205C18.4768 30.6035 32.5085 26.879 37.7246 23.3617C40.4061 26.4505 41.1738 28.5827 41.2225 29.2626Z" fill="#FF8F5D"/>
<path d="M13.4896 2.74698L14.1827 12.4328C14.2606 13.5205 13.4678 14.4663 12.3995 14.6854C8.99241 15.3846 6.68592 16.7126 5.16485 18.2187C2.99397 20.3682 2.45199 23.2885 2.56397 24.8532C2.15132 19.087 2.00462 17.0386 1.48957 9.84028C1.4664 9.51641 1.47824 9.18471 1.54707 8.86737C2.70804 3.51562 7.6576 1.59685 11.3159 0.956844C12.4285 0.762197 13.409 1.62034 13.4896 2.74698Z" fill="#FF611A"/>
<path d="M29.0327 16.9783C36.1751 20.0943 40.1832 26.5011 41.2367 29.4672C41.3142 27.6847 41.2242 22.4147 40.244 15.5954C39.4542 10.0994 33.8128 6.04278 29.5706 4.07296C28.28 3.47369 26.9446 4.52833 27.0461 5.94764L27.7055 15.163C27.7632 15.9677 28.2932 16.6558 29.0327 16.9783Z" fill="#FF611A"/>
<path d="M60.0824 19.6643C58.8943 19.6643 57.7952 19.4712 56.7852 19.0851C55.7902 18.6841 54.9213 18.1271 54.1787 17.4142C53.4509 16.6865 52.8792 15.8399 52.4633 14.8745C52.0474 13.9091 51.8395 12.8472 51.8395 11.6887C51.8395 10.5303 52.0474 9.4683 52.4633 8.50295C52.8792 7.53759 53.4583 6.69841 54.201 5.98551C54.9436 5.25775 55.8125 4.7008 56.8075 4.31465C57.8175 3.91364 58.9166 3.71313 60.1047 3.71313C61.3077 3.71313 62.4142 3.92106 63.4242 4.33692C64.449 4.73793 65.3178 5.33944 66.0307 6.14145L64.5826 7.545C63.9885 6.92119 63.3202 6.46078 62.5776 6.16374C61.835 5.85184 61.0404 5.69589 60.1938 5.69589C59.3175 5.69589 58.5007 5.84441 57.7432 6.14145C57.0006 6.4385 56.3546 6.85436 55.805 7.389C55.2555 7.92369 54.8248 8.56233 54.5129 9.30498C54.2158 10.0328 54.0673 10.8273 54.0673 11.6887C54.0673 12.5501 54.2158 13.3522 54.5129 14.0948C54.8248 14.8225 55.2555 15.4537 55.805 15.9884C56.3546 16.5231 57.0006 16.939 57.7432 17.236C58.5007 17.533 59.3175 17.6816 60.1938 17.6816C61.0404 17.6816 61.835 17.533 62.5776 17.236C63.3202 16.9241 63.9885 16.4489 64.5826 15.8102L66.0307 17.2137C65.3178 18.0157 64.449 18.6247 63.4242 19.0406C62.4142 19.4564 61.3003 19.6643 60.0824 19.6643Z" fill="#111212"/>
<path d="M73.4538 19.6196C72.2657 19.6196 71.2112 19.3597 70.2905 18.8399C69.3696 18.32 68.6418 17.6072 68.1071 16.7012C67.5725 15.7803 67.3052 14.7407 67.3052 13.5823C67.3052 12.4089 67.5725 11.3693 68.1071 10.4633C68.6418 9.5573 69.3696 8.85181 70.2905 8.34688C71.2112 7.827 72.2657 7.56714 73.4538 7.56714C74.6274 7.56714 75.6742 7.827 76.5949 8.34688C77.531 8.85181 78.2589 9.5573 78.7787 10.4633C79.3131 11.3544 79.5806 12.3941 79.5806 13.5823C79.5806 14.7556 79.3131 15.7952 78.7787 16.7012C78.2589 17.6072 77.531 18.32 76.5949 18.8399C75.6742 19.3597 74.6274 19.6196 73.4538 19.6196ZM73.4538 17.7483C74.211 17.7483 74.8869 17.5775 75.4814 17.2359C76.0898 16.8943 76.5656 16.4115 76.9072 15.7878C77.2488 15.1492 77.4196 14.414 77.4196 13.5823C77.4196 12.7357 77.2488 12.0079 76.9072 11.3989C76.5656 10.7752 76.0898 10.2925 75.4814 9.95087C74.8869 9.60927 74.211 9.43847 73.4538 9.43847C72.6965 9.43847 72.0207 9.60927 71.4266 9.95087C70.8325 10.2925 70.3572 10.7752 70.0008 11.3989C69.6443 12.0079 69.4661 12.7357 69.4661 13.5823C69.4661 14.414 69.6443 15.1492 70.0008 15.7878C70.3572 16.4115 70.8325 16.8943 71.4266 17.2359C72.0207 17.5775 72.6965 17.7483 73.4538 17.7483Z" fill="#111212"/>
<path d="M88.8427 7.56714C89.8081 7.56714 90.6548 7.75275 91.3827 8.12404C92.1253 8.4954 92.7044 9.05978 93.12 9.81724C93.5364 10.5747 93.7439 11.5327 93.7439 12.6911V19.486H91.6056V12.9362C91.6056 11.7925 91.3233 10.9311 90.7589 10.3519C90.2091 9.77267 89.4299 9.48304 88.4197 9.48304C87.6625 9.48304 87.0013 9.63156 86.4368 9.92859C85.8724 10.2256 85.434 10.6638 85.1225 11.243C84.8256 11.8223 84.6768 12.5426 84.6768 13.404V19.486H82.5385V7.67849H84.5881V10.8643L84.2538 10.0177C84.6401 9.24539 85.2339 8.64392 86.0358 8.21318C86.8378 7.78251 87.7739 7.56714 88.8427 7.56714Z" fill="#111212"/>
<path d="M104.007 7.56714C104.972 7.56714 105.819 7.75275 106.547 8.12404C107.289 8.4954 107.868 9.05978 108.285 9.81724C108.7 10.5747 108.908 11.5327 108.908 12.6911V19.486H106.77V12.9362C106.77 11.7925 106.487 10.9311 105.923 10.3519C105.373 9.77267 104.594 9.48304 103.584 9.48304C102.826 9.48304 102.165 9.63156 101.601 9.92859C101.036 10.2256 100.599 10.6638 100.286 11.243C99.9895 11.8223 99.8407 12.5426 99.8407 13.404V19.486H97.7024V7.67849H99.752V10.8643L99.4177 10.0177C99.804 9.24539 100.398 8.64392 101.2 8.21318C102.002 7.78251 102.938 7.56714 104.007 7.56714Z" fill="#111212"/>
<path d="M118.124 19.6196C116.861 19.6196 115.747 19.3597 114.782 18.8399C113.832 18.32 113.089 17.6072 112.554 16.7012C112.034 15.7952 111.775 14.7556 111.775 13.5823C111.775 12.4089 112.027 11.3693 112.532 10.4633C113.052 9.5573 113.757 8.85181 114.648 8.34688C115.554 7.827 116.572 7.56714 117.701 7.56714C118.844 7.56714 119.854 7.8196 120.73 8.3246C121.606 8.82953 122.29 9.54242 122.78 10.4633C123.285 11.3693 123.537 12.4312 123.537 13.649C123.537 13.7382 123.53 13.8421 123.515 13.961C123.515 14.0798 123.508 14.1912 123.492 14.2952H113.445V12.7579H122.379L121.51 13.2926C121.525 12.5352 121.369 11.8594 121.042 11.2653C120.716 10.6712 120.263 10.2108 119.684 9.88402C119.119 9.54242 118.458 9.37162 117.701 9.37162C116.958 9.37162 116.297 9.54242 115.718 9.88402C115.139 10.2108 114.686 10.6786 114.359 11.2876C114.032 11.8817 113.868 12.5649 113.868 13.3372V13.6936C113.868 14.4808 114.047 15.1862 114.403 15.8101C114.774 16.419 115.287 16.8943 115.941 17.2359C116.594 17.5775 117.344 17.7483 118.19 17.7483C118.889 17.7483 119.52 17.6294 120.085 17.3918C120.664 17.1542 121.169 16.7977 121.599 16.3225L122.78 17.7037C122.245 18.3275 121.577 18.8028 120.775 19.1295C119.988 19.4563 119.104 19.6196 118.124 19.6196Z" fill="#111212"/>
<path d="M131.653 19.6196C130.45 19.6196 129.374 19.3597 128.423 18.8399C127.487 18.32 126.752 17.6072 126.217 16.7012C125.683 15.7952 125.415 14.7556 125.415 13.5823C125.415 12.4089 125.683 11.3693 126.217 10.4633C126.752 9.5573 127.487 8.85181 128.423 8.34688C129.374 7.827 130.45 7.56714 131.653 7.56714C132.723 7.56714 133.673 7.78251 134.505 8.21318C135.352 8.62904 136.005 9.25286 136.465 10.0846L134.839 11.1316C134.453 10.5524 133.978 10.1291 133.413 9.86181C132.864 9.57958 132.27 9.43847 131.631 9.43847C130.859 9.43847 130.168 9.60927 129.559 9.95087C128.95 10.2925 128.468 10.7752 128.111 11.3989C127.754 12.0079 127.576 12.7357 127.576 13.5823C127.576 14.4288 127.754 15.164 128.111 15.7878C128.468 16.4115 128.95 16.8943 129.559 17.2359C130.168 17.5775 130.859 17.7483 131.631 17.7483C132.27 17.7483 132.864 17.6146 133.413 17.3473C133.978 17.0651 134.453 16.6343 134.839 16.0551L136.465 17.0799C136.005 17.8968 135.352 18.528 134.505 18.9736C133.673 19.4043 132.723 19.6196 131.653 19.6196Z" fill="#111212"/>
<path d="M143.441 19.6195C142.253 19.6195 141.332 19.3002 140.679 18.6615C140.026 18.0229 139.699 17.1095 139.699 15.9213V5.09412H141.837V15.8322C141.837 16.4709 141.993 16.961 142.305 17.3026C142.632 17.6442 143.092 17.815 143.687 17.815C144.355 17.815 144.911 17.6293 145.357 17.258L146.026 18.7952C145.699 19.0774 145.305 19.2853 144.845 19.419C144.399 19.5527 143.931 19.6195 143.441 19.6195ZM137.694 9.43835V7.67837H145.224V9.43835H137.694Z" fill="#111212"/>
<path d="M153.477 19.6196C152.215 19.6196 151.101 19.3597 150.135 18.8399C149.185 18.32 148.443 17.6072 147.907 16.7012C147.388 15.7952 147.128 14.7556 147.128 13.5823C147.128 12.4089 147.38 11.3693 147.885 10.4633C148.405 9.5573 149.111 8.85181 150.002 8.34688C150.908 7.827 151.925 7.56714 153.054 7.56714C154.198 7.56714 155.208 7.8196 156.084 8.3246C156.96 8.82953 157.643 9.54242 158.133 10.4633C158.639 11.3693 158.891 12.4312 158.891 13.649C158.891 13.7382 158.883 13.8421 158.869 13.961C158.869 14.0798 158.861 14.1912 158.846 14.2952H148.799V12.7579H157.732L156.864 13.2926C156.878 12.5352 156.722 11.8594 156.395 11.2653C156.069 10.6712 155.616 10.2108 155.037 9.88402C154.473 9.54242 153.811 9.37162 153.054 9.37162C152.312 9.37162 151.65 9.54242 151.071 9.88402C150.492 10.2108 150.039 10.6786 149.712 11.2876C149.385 11.8817 149.222 12.5649 149.222 13.3372V13.6936C149.222 14.4808 149.401 15.1862 149.757 15.8101C150.128 16.419 150.64 16.8943 151.294 17.2359C151.947 17.5775 152.697 17.7483 153.544 17.7483C154.242 17.7483 154.874 17.6294 155.438 17.3918C156.017 17.1542 156.522 16.7977 156.953 16.3225L158.133 17.7037C157.599 18.3275 156.931 18.8028 156.129 19.1295C155.341 19.4563 154.457 19.6196 153.477 19.6196Z" fill="#111212"/>
<path d="M166.74 19.6195C165.596 19.6195 164.571 19.367 163.665 18.862C162.774 18.3571 162.068 17.6516 161.549 16.7457C161.029 15.8397 160.769 14.7852 160.769 13.5822C160.769 12.3791 161.029 11.3321 161.549 10.4409C162.068 9.53493 162.774 8.82944 163.665 8.32451C164.571 7.81952 165.596 7.56705 166.74 7.56705C167.735 7.56705 168.633 7.78983 169.435 8.23537C170.238 8.68092 170.876 9.34932 171.351 10.2404C171.842 11.1315 172.086 12.2455 172.086 13.5822C172.086 14.9188 171.849 16.0328 171.373 16.9239C170.913 17.815 170.282 18.4908 169.48 18.9512C168.678 19.3967 167.764 19.6195 166.74 19.6195ZM166.918 17.7482C167.66 17.7482 168.329 17.5774 168.923 17.2358C169.532 16.8942 170.007 16.4115 170.348 15.7877C170.705 15.1491 170.883 14.4139 170.883 13.5822C170.883 12.7356 170.705 12.0078 170.348 11.3989C170.007 10.7751 169.532 10.2924 168.923 9.95079C168.329 9.60919 167.66 9.43839 166.918 9.43839C166.16 9.43839 165.485 9.60919 164.891 9.95079C164.296 10.2924 163.821 10.7751 163.465 11.3989C163.108 12.0078 162.93 12.7356 162.93 13.5822C162.93 14.4139 163.108 15.1491 163.465 15.7877C163.821 16.4115 164.296 16.8942 164.891 17.2358C165.485 17.5774 166.16 17.7482 166.918 17.7482ZM170.95 19.4859V16.3001L171.084 13.5599L170.861 10.8197V2.95544H173V19.4859H170.95Z" fill="#111212"/>
<path d="M51.8395 38.0974V27.7009H55.8941C56.805 27.7009 57.5823 27.8445 58.2259 28.1317C58.8694 28.4188 59.3645 28.8347 59.7111 29.3792C60.0576 29.9238 60.2309 30.5724 60.2309 31.3248C60.2309 32.0774 60.0576 32.7259 59.7111 33.2705C59.3645 33.8052 58.8694 34.2161 58.2259 34.5032C57.5823 34.7903 56.805 34.9339 55.8941 34.9339H52.6563L53.3246 34.2507V38.0974H51.8395ZM58.7903 38.0974L56.1466 34.325H57.7358L60.4091 38.0974H58.7903ZM53.3246 34.3993L52.6563 33.6715H55.8495C56.8 33.6715 57.5179 33.4685 58.0031 33.0625C58.4981 32.6467 58.7457 32.0675 58.7457 31.3248C58.7457 30.5823 58.4981 30.008 58.0031 29.602C57.5179 29.1961 56.8 28.9931 55.8495 28.9931H52.6563L53.3246 28.2505V34.3993Z" fill="#FF611A"/>
<path d="M67.2366 38.0973V36.4338L67.1623 36.1219V33.2852C67.1623 32.6812 66.9841 32.2159 66.6276 31.8891C66.2811 31.5524 65.7563 31.3841 65.0533 31.3841C64.588 31.3841 64.1325 31.4633 63.6869 31.6217C63.2414 31.7702 62.8651 31.9732 62.5582 32.2307L61.9641 31.1614C62.3701 30.8346 62.8552 30.587 63.4196 30.4187C63.9939 30.2405 64.5929 30.1514 65.2167 30.1514C66.2959 30.1514 67.1276 30.4138 67.7119 30.9385C68.2961 31.4633 68.5881 32.2653 68.5881 33.3446V38.0973H67.2366ZM64.6524 38.1864C64.0681 38.1864 63.5533 38.0874 63.1077 37.8894C62.672 37.6913 62.3354 37.4191 62.0977 37.0725C61.8601 36.7161 61.7413 36.315 61.7413 35.8695C61.7413 35.4437 61.8403 35.0575 62.0384 34.711C62.2463 34.3644 62.578 34.0872 63.0334 33.8793C63.4988 33.6713 64.1226 33.5674 64.9048 33.5674H67.4V34.5922H64.9642C64.2513 34.5922 63.7711 34.711 63.5235 34.9486C63.276 35.1863 63.1522 35.4734 63.1522 35.8101C63.1522 36.1962 63.3057 36.5081 63.6127 36.7457C63.9196 36.9734 64.3453 37.0873 64.8899 37.0873C65.4246 37.0873 65.89 36.9685 66.286 36.7309C66.692 36.4932 66.9841 36.1467 67.1623 35.6913L67.4445 36.6715C67.2564 37.1368 66.9247 37.5081 66.4494 37.7854C65.9742 38.0527 65.3751 38.1864 64.6524 38.1864Z" fill="#FF611A"/>
<path d="M71.2268 38.0971V30.2255H72.6526V38.0971H71.2268ZM71.9397 28.7105C71.6625 28.7105 71.4298 28.6215 71.2417 28.4432C71.0634 28.265 70.9744 28.0472 70.9744 27.7897C70.9744 27.5224 71.0634 27.2996 71.2417 27.1213C71.4298 26.9431 71.6625 26.854 71.9397 26.854C72.217 26.854 72.4447 26.9431 72.6229 27.1213C72.811 27.2897 72.9051 27.5026 72.9051 27.76C72.9051 28.0273 72.816 28.2551 72.6378 28.4432C72.4595 28.6215 72.2269 28.7105 71.9397 28.7105Z" fill="#FF611A"/>
<path d="M75.3751 38.0973V27.077H76.8009V38.0973H75.3751Z" fill="#FF611A"/>
<path d="M81.1865 38.0975L78.2601 30.2258H79.6119L82.2113 37.3549H81.5721L84.2755 30.2258H85.4785L88.1219 37.3549H87.498L90.1568 30.2258H91.4345L88.4935 38.0975H87.1271L84.6465 31.5922H85.0628L82.5529 38.0975H81.1865Z" fill="#FF611A"/>
<path d="M97.5212 38.0973V36.4338L97.4464 36.1219V33.2852C97.4464 32.6812 97.2683 32.2159 96.912 31.8891C96.5653 31.5524 96.0404 31.3841 95.3374 31.3841C94.8727 31.3841 94.4167 31.4633 93.971 31.6217C93.5261 31.7702 93.1493 31.9732 92.8429 32.2307L92.2484 31.1614C92.6545 30.8346 93.1398 30.587 93.7042 30.4187C94.2782 30.2405 94.8771 30.1514 95.5009 30.1514C96.5807 30.1514 97.412 30.4138 97.9962 30.9385C98.5805 31.4633 98.8722 32.2653 98.8722 33.3446V38.0973H97.5212ZM94.9365 38.1864C94.3522 38.1864 93.8376 38.0874 93.3919 37.8894C92.9565 37.6913 92.62 37.4191 92.3818 37.0725C92.1443 36.7161 92.0255 36.315 92.0255 35.8695C92.0255 35.4437 92.1245 35.0575 92.3224 34.711C92.5306 34.3644 92.8627 34.0872 93.3179 33.8793C93.7834 33.6713 94.4072 33.5674 95.1894 33.5674H97.6847V34.5922H95.2487C94.5355 34.5922 94.0553 34.711 93.8083 34.9486C93.5605 35.1863 93.4366 35.4734 93.4366 35.8101C93.4366 36.1962 93.5898 36.5081 93.897 36.7457C94.2041 36.9734 94.63 37.0873 95.174 37.0873C95.7091 37.0873 96.1746 36.9685 96.5704 36.7309C96.9765 36.4932 97.2683 36.1467 97.4464 35.6913L97.7286 36.6715C97.541 37.1368 97.2089 37.5081 96.7339 37.7854C96.2589 38.0527 95.6592 38.1864 94.9365 38.1864Z" fill="#FF611A"/>
<path d="M101.708 41.0679C101.332 41.0679 100.965 41.0036 100.609 40.8749C100.252 40.756 99.9455 40.5778 99.6882 40.3402L100.297 39.2708C100.495 39.4589 100.713 39.6025 100.951 39.7015C101.188 39.8005 101.44 39.8501 101.708 39.8501C102.055 39.8501 102.341 39.7609 102.569 39.5827C102.797 39.4044 103.01 39.0876 103.208 38.6322L103.698 37.548L103.847 37.3697L106.936 30.2258H108.332L104.515 38.8846C104.287 39.4391 104.029 39.8748 103.743 40.1917C103.466 40.5085 103.159 40.7313 102.822 40.86C102.485 40.9986 102.114 41.0679 101.708 41.0679ZM103.579 38.3499L99.9851 30.2258H101.47L104.53 37.2361L103.579 38.3499Z" fill="#FF611A"/>
</g>
<defs>
<clipPath id="clip0_2547_1906">
<rect width="174" height="42" fill="white"/>
</clipPath>
</defs>
</svg>
