<svg width="32" height="32" viewBox="0 0 32 32" fill="none" xmlns="http://www.w3.org/2000/svg">
<path d="M12 4H6.66667C5.19391 4 4 5.19391 4 6.66667V12C4 13.4728 5.19391 14.6667 6.66667 14.6667H12C13.4728 14.6667 14.6667 13.4728 14.6667 12V6.66667C14.6667 5.19391 13.4728 4 12 4Z" stroke="#111212" stroke-width="2" stroke-linecap="round" stroke-linejoin="round"/>
<path d="M9.33331 14.6665V19.9998C9.33331 20.7071 9.61426 21.3854 10.1144 21.8855C10.6145 22.3856 11.2927 22.6665 12 22.6665H17.3333" stroke="#111212" stroke-width="2" stroke-linecap="round" stroke-linejoin="round"/>
<path d="M25.3333 17.3335H20C18.5272 17.3335 17.3333 18.5274 17.3333 20.0002V25.3335C17.3333 26.8063 18.5272 28.0002 20 28.0002H25.3333C26.8061 28.0002 28 26.8063 28 25.3335V20.0002C28 18.5274 26.8061 17.3335 25.3333 17.3335Z" stroke="#111212" stroke-width="2" stroke-linecap="round" stroke-linejoin="round"/>
</svg>
