<svg width="151" height="42" viewBox="0 0 151 42" fill="none" xmlns="http://www.w3.org/2000/svg">
<g clip-path="url(#clip0_2558_1825)">
<rect width="151" height="42" fill="white"/>
<path d="M35.6309 31.3377L2.03094 14.8149C2.03094 14.8149 -0.560152 21.8395 0.110986 26.5377C1.07094 33.2576 5.87092 38.0576 9.71091 39.9776C14.5109 42.3776 22.2983 43.2904 28.9109 39.0176C32.2582 36.8548 35.6309 31.3377 35.6309 31.3377Z" fill="#FF906D"/>
<circle cx="14.9987" cy="8.60449" r="8.43676" fill="#111212"/>
<path d="M49.7015 26.7977H62.0592V33.043H42.9689V2.03792H61.572V8.23895H49.7015V14.3514H60.4204V20.4195H49.7015V26.7977Z" fill="#111212"/>
<path d="M84.4628 0.487671H90.9296V33.043H86.146L85.393 31.0498C83.2669 32.8511 80.7717 33.7517 77.9075 33.7517C75.5156 33.7517 73.36 33.2054 71.4407 32.1129C69.5213 31.0203 68.0154 29.5143 66.9228 27.595C65.8598 25.6461 65.3282 23.4757 65.3282 21.0839C65.3282 18.6921 65.8598 16.5365 66.9228 14.6171C68.0154 12.6978 69.5213 11.1918 71.4407 10.0993C73.36 9.00669 75.5156 8.46041 77.9075 8.46041C80.3288 8.46041 82.5139 9.11004 84.4628 10.4093V0.487671ZM73.7439 25.779C74.9841 27.0192 76.5344 27.6393 78.3947 27.6393C80.2845 27.6393 81.8495 27.0192 83.0897 25.779C84.3299 24.5092 84.95 22.9442 84.95 21.0839C84.95 19.1941 84.3299 17.6291 83.0897 16.3889C81.8495 15.1487 80.2845 14.5286 78.3947 14.5286C76.5344 14.5286 74.9841 15.1487 73.7439 16.3889C72.5037 17.6291 71.8836 19.1941 71.8836 21.0839C71.8836 22.9737 72.5037 24.5388 73.7439 25.779Z" fill="#111212"/>
<path d="M114.698 0.487671H121.165V33.043H116.381L115.628 31.0498C113.502 32.8511 111.007 33.7517 108.143 33.7517C105.751 33.7517 103.595 33.2054 101.676 32.1129C99.7565 31.0203 98.2505 29.5143 97.158 27.595C96.0949 25.6461 95.5634 23.4757 95.5634 21.0839C95.5634 18.6921 96.0949 16.5365 97.158 14.6171C98.2505 12.6978 99.7565 11.1918 101.676 10.0993C103.595 9.00669 105.751 8.46041 108.143 8.46041C110.564 8.46041 112.749 9.11004 114.698 10.4093V0.487671ZM103.979 25.779C105.219 27.0192 106.77 27.6393 108.63 27.6393C110.52 27.6393 112.085 27.0192 113.325 25.779C114.565 24.5092 115.185 22.9442 115.185 21.0839C115.185 19.1941 114.565 17.6291 113.325 16.3889C112.085 15.1487 110.52 14.5286 108.63 14.5286C106.77 14.5286 105.219 15.1487 103.979 16.3889C102.739 17.6291 102.119 19.1941 102.119 21.0839C102.119 22.9737 102.739 24.5388 103.979 25.779Z" fill="#111212"/>
<path d="M143.87 9.1248H150.78L140.327 32.733C138.85 36.0402 137.344 38.3582 135.809 39.687C134.273 41.0158 132.192 41.6802 129.563 41.6802H126.906V35.8335H129.165C130.7 35.8335 131.793 35.553 132.443 34.9919C133.092 34.4309 133.801 33.235 134.569 31.4042L134.657 31.227L124.514 9.1248H131.557L137.935 23.8301L143.87 9.1248Z" fill="#111212"/>
</g>
<defs>
<clipPath id="clip0_2558_1825">
<rect width="151" height="42" fill="white"/>
</clipPath>
</defs>
</svg>
