<svg width="32" height="32" viewBox="0 0 32 32" fill="none" xmlns="http://www.w3.org/2000/svg">
<path d="M16 9.3335V28.0002" stroke="white" stroke-width="2" stroke-linecap="round" stroke-linejoin="round"/>
<path d="M4.00002 24C3.6464 24 3.30726 23.8595 3.05721 23.6095C2.80716 23.3594 2.66669 23.0203 2.66669 22.6667V5.33333C2.66669 4.97971 2.80716 4.64057 3.05721 4.39052C3.30726 4.14048 3.6464 4 4.00002 4H10.6667C12.0812 4 13.4377 4.5619 14.4379 5.5621C15.4381 6.56229 16 7.91885 16 9.33333C16 7.91885 16.5619 6.56229 17.5621 5.5621C18.5623 4.5619 19.9189 4 21.3334 4H28C28.3536 4 28.6928 4.14048 28.9428 4.39052C29.1929 4.64057 29.3334 4.97971 29.3334 5.33333V22.6667C29.3334 23.0203 29.1929 23.3594 28.9428 23.6095C28.6928 23.8595 28.3536 24 28 24H20C18.9392 24 17.9217 24.4214 17.1716 25.1716C16.4214 25.9217 16 26.9391 16 28C16 26.9391 15.5786 25.9217 14.8284 25.1716C14.0783 24.4214 13.0609 24 12 24H4.00002Z" stroke="white" stroke-width="2" stroke-linecap="round" stroke-linejoin="round"/>
</svg>
