<svg viewBox="0 0 512 512" xmlns="http://www.w3.org/2000/svg" fill-rule="evenodd" clip-rule="evenodd" stroke-linejoin="round" stroke-miterlimit="2"><path d="M21.625 256c0 21.62 3.035 42.495 8.195 62.5h304.304c34.516 0 62.5-27.985 62.5-62.5 0-34.516-27.984-62.5-62.5-62.5H29.82a249.101 249.101 0 00-8.195 62.5" fill="#343741" fill-rule="nonzero"/><path d="M442.308 125.718a240.051 240.051 0 0024.324-25.968C420.796 42.637 350.527 6 271.624 6 172.855 6 87.863 63.46 47.304 146.625h341.664a78.627 78.627 0 0053.328-20.907" fill="#fec514" fill-rule="nonzero"/><path d="M388.968 365.374H47.316C87.88 448.538 172.856 506 271.624 506c78.907 0 149.172-36.652 195.008-93.75a238.559 238.559 0 00-24.324-25.968 78.682 78.682 0 00-53.34-20.907" fill="#00bfb3" fill-rule="nonzero"/></svg>