<svg width="30" height="25" viewBox="0 0 30 25" fill="none" xmlns="http://www.w3.org/2000/svg">
<path d="M24.8853 15.2187C27 13.104 28.3333 11.3334 28.3333 8.6667C28.3333 7.18296 27.8832 5.73414 27.0425 4.51158C26.2018 3.28902 25.01 2.35024 23.6245 1.81923C22.2391 1.28822 20.7251 1.18995 19.2827 1.53742C17.8402 1.88489 16.537 2.66174 15.5453 3.76536M24.8853 15.2187C24.6224 15.4817 24.3101 15.6904 23.9665 15.8327C23.6229 15.975 23.2546 16.0483 22.8827 16.0483C22.5107 16.0483 22.1424 15.975 21.7988 15.8327C21.4552 15.6904 21.143 15.4817 20.88 15.2187C21.1647 15.4762 21.3941 15.7888 21.5543 16.1377C21.7145 16.4866 21.802 16.8644 21.8117 17.2481C21.8213 17.6319 21.7528 18.0136 21.6104 18.3701C21.468 18.7265 21.2545 19.0503 20.9831 19.3218C20.7116 19.5932 20.3878 19.8066 20.0314 19.9491C19.6749 20.0915 19.2932 20.16 18.9094 20.1504C18.5257 20.1407 18.1479 20.0532 17.799 19.893C17.4501 19.7328 17.1375 19.5034 16.88 19.2187C17.1432 19.4809 17.3521 19.7924 17.4949 20.1353C17.6376 20.4783 17.7113 20.8461 17.7118 21.2176C17.7123 21.5891 17.6396 21.957 17.4978 22.3004C17.3559 22.6438 17.1478 22.9558 16.8853 23.2187C16.632 23.4721 16.3301 23.6719 15.9978 23.8061C15.6655 23.9403 15.3096 24.0061 14.9513 23.9996C14.593 23.9931 14.2396 23.9145 13.9124 23.7684C13.5852 23.6223 13.2907 23.4118 13.0467 23.1494L5.66667 16C3.66667 14 1.66667 11.7334 1.66667 8.6667C1.66696 7.18308 2.11726 5.73444 2.95808 4.51209C3.7989 3.28974 4.9907 2.35117 6.3761 1.82032C7.7615 1.28948 9.27533 1.19133 10.7177 1.53883C12.16 1.88634 13.463 2.66315 14.4547 3.7667C14.6029 3.90448 14.7979 3.98095 15.0003 3.9807C15.2027 3.98045 15.3974 3.9035 15.5453 3.76536M24.8853 15.2187C25.3853 14.7186 25.6661 14.0405 25.6661 13.3334C25.6661 12.6263 25.3853 11.9481 24.8853 11.448L22.3773 8.9387C22.0789 8.64016 21.7246 8.40334 21.3347 8.24177C20.9447 8.0802 20.5268 7.99704 20.1047 7.99704C19.6826 7.99704 19.2646 8.0802 18.8747 8.24177C18.4847 8.40334 18.1304 8.64016 17.832 8.9387L15.552 11.2187C15.0519 11.7186 14.3738 11.9995 13.6667 11.9995C12.9596 11.9995 12.2814 11.7186 11.7813 11.2187C11.2814 10.7186 11.0006 10.0405 11.0006 9.33336C11.0006 8.62626 11.2814 7.9481 11.7813 7.44803L15.5453 3.76536" stroke="white" stroke-width="2" stroke-linecap="round" stroke-linejoin="round"/>
</svg>
