<svg xmlns="http://www.w3.org/2000/svg" fill="none" viewBox="0 0 24 24" id="Hugging-Face-Icon--Streamline-Svg-Logos" height="24" width="24">
  <desc>
    Hugging Face Icon Streamline Icon: https://streamlinehq.com
  </desc>
  <path fill="#ffffff" d="M23.670875 17.1292c-0.061275 -0.2313 -0.160525 -0.450725 -0.2937 -0.6495 0.028525 -0.10475 0.0502 -0.2111 0.064825 -0.318475 0.094475 -0.6819 -0.14185 -1.306525 -0.587425 -1.7892 -0.24135 -0.2638 -0.500025 -0.437925 -0.774 -0.54485 0.179825 -0.769425 0.2709 -1.556425 0.27135 -2.347175 0 -0.3608 -0.020425 -0.7143 -0.05465 -1.062575 -0.017925 -0.173875 -0.039475 -0.34745 -0.0647 -0.520425 -0.0785 -0.5104 -0.1949 -1.0143 -0.34825 -1.50735 -0.100525 -0.32395 -0.2168 -0.642875 -0.348375 -0.955525 -0.1973 -0.46305 -0.427675 -0.911275 -0.689325 -1.340775 -0.171725 -0.28595 -0.358625 -0.562525 -0.560025 -0.828525 -0.0987 -0.1343 -0.201525 -0.2654 -0.30855 -0.3932 -0.317 -0.38535 -0.661375 -0.74705 -1.030725 -1.082525 -0.12255 -0.112775 -0.24865 -0.2216 -0.37815 -0.326475 -0.12745 -0.106325 -0.257775 -0.209275 -0.3907 -0.30865 -0.267575 -0.199125 -0.544175 -0.386025 -0.82875 -0.559925 -1.5724 -0.955075 -3.416375 -1.5027875 -5.388125 -1.5027875 -5.738425 0 -10.3894275 4.6509875 -10.3894275 10.3894125 -0.0001475 0.800125 0.0925525 1.5975 0.2762525 2.3757 -0.24647 0.10705 -0.482785 0.27375 -0.701755 0.5151 -0.4454725 0.482775 -0.6819025 1.104875 -0.5873075 1.7869 0.0142625 0.1084 0.0359425 0.21565 0.0646975 0.3211 -0.1330475 0.198875 -0.23232 0.418425 -0.29371 0.649725 -0.1369285 0.520425 -0.09185625 0.98975 0.0821575 1.401225 -0.189076 0.53755 -0.141835 1.109925 0.10452 1.607775 0.1791475 0.363425 0.435545 0.644475 0.7515075 0.89585 0.375755 0.2986 0.8461025 0.5525 1.41379 0.795875 0.676875 0.2887 1.502775 0.559925 1.8782 0.659425 0.970575 0.251375 1.901 0.410675 2.844675 0.418325 1.344175 0.01255 2.501225 -0.303525 3.329625 -1.1122 0.407025 0.049875 0.816675 0.07485 1.22665 0.07475 0.433275 -0.000925 0.866075 -0.0283 1.29625 -0.0817 0.8266 0.8138 1.98775 1.132725 3.3365 1.119825 0.943075 -0.0074 1.873625 -0.1667 2.84125 -0.418425 0.37825 -0.0995 1.203825 -0.370725 1.881625 -0.6593 0.56745 -0.243975 1.037675 -0.497725 1.41605 -0.796 0.313575 -0.251275 0.56975 -0.532425 0.749 -0.895875 0.248875 -0.4976 0.293725 -1.069975 0.107025 -1.60775 0.172425 -0.411125 0.21715 -0.881475 0.08035 -1.401225l0.00135 -0.000575Zm-0.962925 1.36585c0.19065 0.361825 0.202875 0.770675 0.034575 1.15135 -0.25515 0.57715 -0.8889 1.031625 -2.120125 1.5199 -0.7653 0.303625 -1.46625 0.4976 -1.471975 0.499425 -1.01235 0.262575 -1.9284 0.39585 -2.7203 0.39585 -1.312225 0 -2.288975 -0.36205 -2.908575 -1.077275 -1.0474 0.17835 -2.116675 0.1844 -3.166475 0.0179 -0.62005 0.70335 -1.59065 1.059375 -2.8926 1.059375 -0.7927 0 -1.708175 -0.133275 -2.7203 -0.39585 -0.006275 -0.001825 -0.706775 -0.1958 -1.471975 -0.499425 -1.231215 -0.48805 -1.8645075 -0.9423 -2.1201075 -1.5199 -0.1683075 -0.380775 -0.1560975 -0.789625 0.034575 -1.15135 0.017685 -0.03355 0.0365125 -0.0664 0.05671 -0.098025 -0.114335 -0.1716 -0.1909 -0.365575 -0.224905 -0.568925 -0.03398 -0.20335 -0.02452 -0.4117 0.0277525 -0.61115 0.075765 -0.287775 0.23232 -0.527175 0.4447875 -0.69915 -0.1023075 -0.168175 -0.1694475 -0.355325 -0.197405 -0.5502 -0.06116 -0.4238 0.0794175 -0.847025 0.39595 -1.192425 0.2463575 -0.2685 0.594725 -0.416275 0.9805175 -0.416275h0.010275c-0.29086 -0.932125 -0.4382875 -1.9033 -0.437375 -2.88005 0 -5.32535 4.3178 -9.643155 9.643175 -9.643155 5.3265 0 9.64315 4.317805 9.64315 9.643155 0.000675 0.97905 -0.147775 1.952375 -0.44035 2.8869 0.046575 -0.00455 0.0922 -0.00695 0.13695 -0.00695 0.385675 0 0.73415 0.14765 0.9805 0.41615 0.316325 0.3447 0.457225 0.768275 0.39595 1.1924 -0.02795 0.1949 -0.09505 0.38215 -0.1974 0.55035 0.212475 0.17185 0.369025 0.41125 0.4448 0.699125 0.05215 0.19945 0.0616 0.4077 0.0276 0.61115 -0.034 0.20335 -0.110575 0.397225 -0.224775 0.56895 0.0202 0.03125 0.03925 0.064125 0.0567 0.097675l0.000675 0.00045Z" stroke-width="0.25"></path>
  <path fill="#ff9d00" d="M22.644075 18.3958c0.114225 -0.17175 0.1908 -0.3656 0.2248 -0.56895 0.034 -0.20345 0.024525 -0.4117 -0.027625 -0.61115 -0.075775 -0.287775 -0.232325 -0.527175 -0.444775 -0.699125 0.102225 -0.1682 0.16945 -0.35535 0.1974 -0.550225 0.06115 -0.4238 -0.079425 -0.847025 -0.39595 -1.192425 -0.246375 -0.2685 -0.59485 -0.41625 -0.980525 -0.41625 -0.04485 0 -0.090375 0.002275 -0.136925 0.00695 0.292225 -0.9343 0.44045 -1.907875 0.439525 -2.8869 0 -5.32535 -4.3178 -9.64316 -9.64315 -9.64316 -5.325375 0 -9.643165 4.31666 -9.643165 9.64316 -0.000925 0.9764 0.1465125 1.9478 0.437365 2.88005h-0.010275c-0.38567 0 -0.7340375 0.147775 -0.9803925 0.416275 -0.316305 0.3447 -0.4571125 0.76815 -0.3959525 1.1924 0.0279225 0.1949 0.095075 0.382025 0.197405 0.550225 -0.2124675 0.171975 -0.36902 0.41135 -0.4446725 0.69925 -0.05224 0.19945 -0.061665 0.407825 -0.0276375 0.611275 0.0340275 0.203325 0.1107175 0.397325 0.2250175 0.568925 -0.020425 0.031625 -0.0391375 0.064475 -0.05671 0.098025 -0.1905575 0.361825 -0.2028825 0.770675 -0.034575 1.151325 0.25503 0.57705 0.8888925 1.031775 2.1200925 1.519925 0.765325 0.303625 1.466275 0.4976 1.472 0.499425 1.01235 0.262575 1.9284 0.39595 2.7203 0.39595 1.30195 0 2.273 -0.356 2.8926 -1.059475 1.049325 0.166475 2.118975 0.160425 3.166475 -0.017925 0.61925 0.715225 1.59635 1.0774 2.908575 1.0774 0.792575 0 1.708175 -0.133375 2.7203 -0.39595 0.00615 -0.001825 0.706775 -0.1958 1.471975 -0.499425 1.231225 -0.487925 1.8645 -0.94265 2.1201 -1.519925 0.168325 -0.380775 0.1561 -0.7896 -0.034575 -1.151325 -0.01745 -0.0339 -0.036625 -0.06665 -0.056825 -0.098025l-0.0002 -0.000325ZM9.90975 19.899725c-0.0534 0.09345 -0.11055 0.184625 -0.1715 0.273275 -0.1603 0.234725 -0.371175 0.413975 -0.615825 0.547375 -0.46795 0.255025 -1.06005 0.34425 -1.6614 0.34425 -0.950275 0 -1.924975 -0.2224 -2.4704 -0.3641 -0.026825 -0.006975 -3.3467575 -0.9448 -2.926845 -1.74355 0.0707475 -0.1342 0.18725 -0.187825 0.3337625 -0.187825 0.5918825 0 1.6693825 0.88135 2.1326575 0.88135 0.103375 0 0.1764 -0.04415 0.2062 -0.151525 0.1974 -0.708025 -2.9998775 -1.005625 -2.730585 -2.0311 0.0475825 -0.181425 0.1764075 -0.255025 0.3577225 -0.255025 0.7824375 -0.000125 2.5388875 1.376125 2.9063125 1.376125 0.028175 0 0.048375 -0.008225 0.059325 -0.025575l0.0048 -0.00785c0.1723 -0.2847 0.073475 -0.4917 -1.10775 -1.21525l-0.113425 -0.069025c-1.299675 -0.786775 -2.212535 -1.25975 -1.69335 -1.824575 0.0596775 -0.065275 0.144225 -0.09415 0.24705 -0.09415 0.121975 0 0.2695 0.04085 0.432 0.1092 0.686475 0.2895 1.637425 1.079 2.035675 1.422925 0.117175 0.102 0.1862 0.1643 0.1862 0.1643s0.503225 0.5233 0.80755 0.5233c0.07005 0 0.1294 -0.0275 0.169675 -0.09585 0.2159 -0.363775 -2.003725 -2.045925 -2.129225 -2.7397 -0.0848 -0.47035 0.05955 -0.708475 0.326675 -0.708475 0.1269 0 0.28185 0.05395 0.4529 0.162475 0.5306 0.33685 1.555275 2.097275 1.930675 2.781925 0.12575 0.229575 0.340375 0.326575 0.5338 0.326575 0.383725 0 0.683725 -0.38145 0.03515 -0.866175 -0.974825 -0.7295 -0.632725 -1.921575 -0.167525 -1.9946 0.01985 -0.003075 0.03995 -0.004675 0.059925 -0.0048 0.4231 0 0.609775 0.72915 0.609775 0.72915s0.546925 1.37385 1.4868 2.31295c0.852725 0.85225 0.97175 1.55185 0.475025 2.423625l-0.001825 0.00035Zm3.038675 0.160875 -0.048725 0.005825 -0.083175 0.009575c-0.0437 0.00445 -0.087425 0.0088 -0.13135 0.0129l-0.0429 0.003875 -0.039025 0.003325 -0.055575 0.00445c-0.020425 0.001475 -0.04085 0.003075 -0.061275 0.004325l-0.06115 0.004125 -0.013475 0.000775 -0.04815 0.002875 -0.020425 0.001025 -0.05705 0.00285 -0.0663 0.002725 -0.06025 0.00205 -0.04015 0.00115h-0.020325c-0.01255 0 -0.024975 0.000675 -0.03755 0.0008h-0.01995c-0.01255 0 -0.025 0 -0.03755 0.000675l-0.051 0.000575h-0.071425c-0.056025 0 -0.111825 -0.000575 -0.167625 -0.0016l-0.0452 -0.001025c-0.012775 0 -0.025675 -0.000675 -0.03845 -0.001025l-0.0478 -0.001475 -0.059575 -0.002275 -0.053525 -0.0023 -0.0139 -0.000575 -0.051025 -0.002725c-0.01415 -0.0008 -0.0283 -0.001475 -0.042325 -0.0024l-0.032975 -0.00195c-0.041425 -0.002625 -0.08285 -0.005575 -0.124275 -0.008775l-0.04335 -0.003425 -0.054775 -0.004675 -0.064 -0.005925c-0.035725 -0.003325 -0.07145 -0.006975 -0.10715 -0.010975h-0.001725c0.521475 -1.163875 0.257775 -2.250175 -0.796 -3.30225 -0.691025 -0.6901 -1.151325 -1.7093 -1.24605 -1.93295 -0.193075 -0.6624 -0.70415 -1.39895 -1.553 -1.39895 -0.07175 0.0001 -0.1433 0.005825 -0.214175 0.017 -0.371875 0.058425 -0.69685 0.272475 -0.9287 0.5945 -0.250475 -0.311625 -0.4941 -0.55935 -0.714325 -0.699375 -0.33205 -0.2104 -0.6633 -0.3172 -0.986225 -0.3172 -0.402775 0 -0.763025 0.16545 -1.01405 0.46555l-0.006275 0.00765 -0.01415 -0.05945 -0.000575 -0.002525c-0.04775 -0.20425 -0.08785 -0.410325 -0.120275 -0.61755 0 -0.001475 0 -0.00285 -0.000675 -0.0042l-0.007075 -0.0469c-0.003825 -0.02535 -0.00755 -0.050775 -0.0112 -0.076125 -0.00295 -0.0211 -0.005925 -0.0422 -0.00865 -0.0632 -0.00275 -0.021 -0.005725 -0.042125 -0.008225 -0.063225 -0.00275 -0.021225 -0.00525 -0.042325 -0.00775 -0.06345 -0.002425 -0.020075 -0.004725 -0.04015 -0.006975 -0.06025l-0.000675 -0.005125c-0.010275 -0.09265 -0.0191 -0.185425 -0.026475 -0.2783l-0.004 -0.05375c-0.00115 -0.014725 -0.002175 -0.02955 -0.003075 -0.0445 0 -0.003425 -0.00045 -0.00695 -0.000675 -0.01015l-0.003775 -0.059575c-0.00135 -0.02155 -0.0024 -0.043125 -0.00355 -0.0647 -0.001125 -0.02145 -0.002275 -0.043025 -0.003175 -0.0647l-0.0023 -0.056475 -0.000675 -0.017125 -0.001725 -0.05225 -0.001225 -0.044275c0 -0.017675 -0.000825 -0.0355 -0.00115 -0.053175l-0.000925 -0.0558c-0.000225 -0.0186 0 -0.037075 -0.00045 -0.055675 -0.000575 -0.018725 0 -0.037325 0 -0.056025 0 -4.775375 3.87165 -8.647025 8.64815 -8.647025 4.7765 0 8.64815 3.87165 8.64815 8.647025v0.1117c0 0.0186 -0.00045 0.037325 -0.000925 0.0558 0 0.015525 -0.00055 0.0307 -0.001025 0.046225 0 0.0138 -0.00055 0.0275 -0.001125 0.04085 0 0.01745 -0.001025 0.0348 -0.0016 0.05225v0.001475c-0.001475 0.0379 -0.003075 0.075775 -0.004675 0.11365l-0.0007 0.01255 -0.00295 0.0566 -0.00275 0.04485c-0.006375 0.106225 -0.014725 0.212475 -0.024875 0.318475v0.001475c-0.001825 0.01985 -0.003875 0.039825 -0.00605 0.059675 -0.005025 0.046225 -0.01015 0.092425 -0.015275 0.13865l-0.005825 0.04645 -0.0072 0.054525c-0.0025 0.019975 -0.00525 0.039825 -0.0081 0.059675 -0.003075 0.02225 -0.006375 0.0444 -0.009575 0.066525l-0.008 0.052275 -0.00935 0.059325c-0.0032 0.01975 -0.0064 0.039375 -0.01015 0.059125 -0.003875 0.019625 -0.00685 0.03925 -0.010275 0.058975 -0.00685 0.03925 -0.013925 0.0784 -0.021575 0.117525 -0.015175 0.07795 -0.031025 0.15565 -0.0478 0.23325 -0.004225 0.019275 -0.00855 0.038675 -0.013 0.05795 -0.2434 -0.236525 -0.565625 -0.36535 -0.9212 -0.36535 -0.322575 0 -0.654175 0.106675 -0.9861 0.3172 -0.22035 0.1399 -0.463725 0.38775 -0.714425 0.699375 -0.2322 -0.322125 -0.557175 -0.536075 -0.9286 -0.594625 -0.070875 -0.01105 -0.142525 -0.016775 -0.2143 -0.016875 -0.848825 0 -1.36015 0.736325 -1.553 1.39895 -0.095725 0.22375 -0.555575 1.242625 -1.247175 1.9341 -1.052975 1.04955 -1.319075 2.131525 -0.805375 3.2897l-0.000675 -0.000575Zm8.927725 -2.328925 -0.003425 0.010175c-0.0024 0.0065 -0.0048 0.013 -0.007425 0.0194 -0.0041 0.0097 -0.00845 0.01915 -0.013 0.028625 -0.011075 0.0226 -0.023625 0.0445 -0.03745 0.0655 -0.01905 0.028425 -0.039925 0.055575 -0.062625 0.081125 -0.00525 0.00595 -0.010275 0.011775 -0.0162 0.017575 -0.008 0.0088 -0.01655 0.01735 -0.025 0.0259 -0.1537 0.15235 -0.38785 0.285725 -0.652575 0.408275 -0.03 0.013575 -0.060375 0.027175 -0.091175 0.04075l-0.030575 0.013575c-0.020425 0.009 -0.04075 0.018025 -0.0622 0.026825 -0.020875 0.0089 -0.041875 0.017675 -0.062875 0.02635l-0.06365 0.02635c-0.148925 0.061275 -0.301475 0.1196 -0.4504 0.177325l-0.06355 0.02465 -0.062975 0.02465c-0.041775 0.016325 -0.083075 0.032625 -0.123825 0.04895l-0.060575 0.024425 -0.05945 0.0244 -0.029325 0.012225c-0.0194 0.0082 -0.038575 0.0162 -0.057525 0.024425 -0.437925 0.1878 -0.752875 0.378925 -0.686675 0.616175 0.001825 0.006725 0.003875 0.0131 0.00615 0.019275 0.005925 0.017575 0.014025 0.034225 0.024075 0.04975 0.005925 0.00935 0.012775 0.01815 0.020425 0.026125 0.077825 0.0808 0.219425 0.068 0.398 0.003875 0.0145 -0.00525 0.029325 -0.010825 0.044275 -0.016775 0.010275 -0.003875 0.020425 -0.007975 0.0307 -0.012075l0.0154 -0.006525c0.04085 -0.017325 0.0841 -0.036625 0.128375 -0.057725 0.011075 -0.005125 0.02225 -0.01015 0.033425 -0.0161 0.2183 -0.106675 0.4658 -0.250575 0.71135 -0.38145 0.03765 -0.020425 0.075425 -0.039925 0.112975 -0.059325 0.061375 -0.03185 0.12335 -0.06255 0.185875 -0.091875 0.23255 -0.1093 0.45105 -0.1869 0.6269 -0.1869 0.082375 0 0.1553 0.0169 0.2159 0.055675l0.01015 0.00675c0.0307 0.021675 0.0574 0.04825 0.079175 0.07885 0.005025 0.007175 0.010275 0.0146 0.014725 0.02225 0.0048 0.007875 0.00935 0.015975 0.0137 0.024175 0.086825 0.164775 0.01415 0.3356 -0.155875 0.503 -0.163275 0.16065 -0.417275 0.318225 -0.7061 0.464175 -0.021325 0.01085 -0.0429 0.021675 -0.064575 0.032175 -0.85935 0.421975 -1.984325 0.73975 -2.0003 0.74375 -0.299875 0.0777 -0.728675 0.179825 -1.2118 0.256175l-0.07155 0.011075 -0.01165 0.0017c-0.109525 0.016425 -0.219425 0.030925 -0.329525 0.043475l-0.01015 0.001025c-0.200275 0.022825 -0.40565 0.039375 -0.6114 0.046325h-0.003075c-0.07395 0.00275 -0.147775 0.004 -0.2217 0.004h-0.085125c-0.11275 -0.0016 -0.225375 -0.006625 -0.337775 -0.0153 -0.002625 0 -0.00535 0 -0.0081 -0.00055 -0.04015 -0.0031 -0.080425 -0.00685 -0.1205 -0.0113 -0.0689 -0.007425 -0.137725 -0.01655 -0.2063 -0.027275 -0.0267 -0.00445 -0.055225 -0.009125 -0.082725 -0.013925 -0.01255 -0.002275 -0.024975 -0.004575 -0.037425 -0.007075l-0.002975 -0.000575c-0.039575 -0.007525 -0.07895 -0.01585 -0.1182 -0.024875 -0.0227 -0.005125 -0.045525 -0.010275 -0.068 -0.016325l-0.013475 -0.003525c-0.011175 -0.00275 -0.02215 -0.0057 -0.0331 -0.008675l-0.00605 -0.0016 -0.03525 -0.01015c-0.012775 -0.00365 -0.02545 -0.007425 -0.038225 -0.011175l-0.004575 -0.001375 -0.0332 -0.01015c-0.01255 -0.003875 -0.024975 -0.008 -0.037425 -0.012 -0.010275 -0.0034 -0.020425 -0.00695 -0.0307 -0.01025l-0.022475 -0.007875c-0.021675 -0.00755 -0.043125 -0.015525 -0.064575 -0.02375l-0.020325 -0.007875 -0.016775 -0.006725c-0.032275 -0.013 -0.06445 -0.026575 -0.0963 -0.04085l-0.021225 -0.01015 -0.003525 -0.0016c-0.00755 -0.003525 -0.01495 -0.007075 -0.022475 -0.010275 -0.014725 -0.007075 -0.029325 -0.014375 -0.043825 -0.0218l-0.00435 -0.00215 -0.020975 -0.011075c-0.037325 -0.0194 -0.07395 -0.040175 -0.109775 -0.0623l-0.019625 -0.011975c-0.01015 -0.006175 -0.0194 -0.01245 -0.0291 -0.018725l-0.025575 -0.017c-0.009225 -0.00615 -0.018475 -0.012425 -0.027475 -0.01895l-0.01645 -0.011625c-0.01735 -0.01245 -0.03435 -0.0251 -0.051125 -0.038225 -0.0089 -0.00685 -0.017675 -0.013925 -0.02645 -0.020425 -0.019525 -0.01565 -0.038575 -0.031725 -0.0574 -0.048275l-0.0008 -0.000675c-0.018375 -0.015875 -0.0363 -0.0323 -0.05375 -0.049075l-0.000925 -0.00115c-0.009125 -0.00865 -0.018025 -0.017325 -0.026925 -0.02635 -0.008775 -0.009025 -0.017675 -0.017925 -0.026225 -0.026925 -0.008675 -0.009125 -0.01735 -0.018375 -0.0258 -0.02785 -0.008225 -0.0089 -0.0162 -0.0179 -0.0242 -0.02705l-0.002725 -0.003075c-0.0412 -0.0478 -0.079775 -0.0979 -0.115475 -0.15005l-0.01415 -0.020875c-0.00935 -0.0138 -0.0186 -0.027725 -0.027725 -0.04165l-0.026925 -0.041425c-0.01325 -0.0202 -0.02615 -0.040625 -0.0387 -0.06115 -0.009 -0.0146 -0.0179 -0.029225 -0.0267 -0.043925 -0.0074 -0.012575 -0.014825 -0.025 -0.0219 -0.037325 -0.004 -0.006725 -0.007775 -0.013575 -0.011525 -0.020425 -0.003775 -0.007075 -0.008225 -0.014275 -0.012225 -0.02145l-0.006375 -0.0113c-0.002175 -0.003775 -0.00285 -0.0049 -0.004 -0.007425 -0.00775 -0.013575 -0.015275 -0.027375 -0.0226 -0.0414 -0.0033 -0.00605 -0.0066 -0.012225 -0.01015 -0.018275l-0.010275 -0.019625 -0.01015 -0.0195 -0.019625 -0.0396c-0.0032 -0.0065 -0.006275 -0.013 -0.00935 -0.019525 -0.006725 -0.014025 -0.013125 -0.027825 -0.019525 -0.04165 -0.0025 -0.005575 -0.005125 -0.011175 -0.0074 -0.01675 -0.0088 -0.019075 -0.017125 -0.03835 -0.025 -0.057875 -0.00535 -0.012875 -0.010275 -0.025675 -0.015525 -0.03845 -0.0147 -0.03765 -0.028525 -0.07565 -0.041175 -0.1141 -0.003775 -0.0114 -0.00755 -0.0227 -0.01085 -0.034125 -0.008225 -0.0259 -0.015625 -0.052025 -0.02225 -0.078375 -0.0081 -0.0307 -0.0153 -0.06175 -0.021325 -0.0929 -0.0039 -0.018375 -0.007325 -0.03685 -0.010175 -0.05545 -0.003075 -0.018375 -0.0057 -0.03675 -0.007875 -0.055 -0.004675 -0.0364 -0.007975 -0.0729 -0.009925 -0.10955 0 -0.00605 -0.000575 -0.0122 -0.000675 -0.01825 -0.000575 -0.0121 -0.000925 -0.024175 -0.001025 -0.036275 -0.0064 -0.487475 0.240425 -0.956325 0.767925 -1.4834 0.939575 -0.93875 1.486825 -2.31295 1.486825 -2.31295s0.014725 -0.057625 0.0454 -0.14045c0.010275 -0.0275 0.021 -0.0549 0.0323 -0.081925 0.0129 -0.0306 0.0267 -0.060825 0.041525 -0.0905l0.00435 -0.008675c0.01905 -0.037875 0.0397 -0.074725 0.062175 -0.110675 0.00515 -0.008325 0.010175 -0.01665 0.0161 -0.024875 0.01665 -0.024875 0.03435 -0.04895 0.05295 -0.07235 0.014375 -0.0179 0.029675 -0.03525 0.04575 -0.051675 0.05455 -0.05615 0.116725 -0.102025 0.18715 -0.12655l0.0089 -0.00285c0.005925 -0.00195 0.01175 -0.003775 0.0178 -0.005475 0.007075 -0.001825 0.014125 -0.00355 0.0212 -0.005025l0.0032 -0.000575c0.01495 -0.002975 0.0299 -0.005025 0.045075 -0.00605h0.001375c0.007875 0 0.01575 -0.0008 0.02385 -0.0008 0.0202 0.000125 0.040275 0.001725 0.06025 0.0048 0.084675 0.01335 0.165325 0.063775 0.234725 0.1416l0.00935 0.01095c0.0226 0.026475 0.043125 0.054775 0.061375 0.08445 0.0137 0.022025 0.0266 0.045175 0.0388 0.069475 0.0049 0.010275 0.0096 0.01965 0.014275 0.029675 0.002275 0.00515 0.00455 0.01015 0.006725 0.0154 0.004575 0.010175 0.008775 0.020425 0.013 0.03115 0.02385 0.061175 0.04235 0.124275 0.05535 0.188625 0.0138 0.0695 0.0218 0.14 0.024075 0.210875 0.0008 0.03115 0.0008 0.06265 0 0.0946 -0.000575 0.012075 -0.00115 0.0243 -0.00205 0.0365 -0.00935 0.135675 -0.0389 0.269175 -0.08775 0.396175 -0.0049 0.01255 -0.010275 0.02535 -0.0153 0.038125 -0.024525 0.05865 -0.05305 0.115475 -0.085225 0.17025 -0.018375 0.03125 -0.038225 0.0623 -0.05945 0.0931l-0.013 0.0185c-0.050325 0.070275 -0.106475 0.136225 -0.16785 0.197175 -0.0605 0.060575 -0.1253 0.1166 -0.193875 0.16785 -0.0688 0.050775 -0.133275 0.10715 -0.19285 0.168425 -0.1715 0.18005 -0.211425 0.338775 -0.172875 0.45915 0.004575 0.013575 0.009925 0.026925 0.0161 0.039825 0.01425 0.02795 0.03275 0.053625 0.054875 0.076l0.00605 0.00605c0.006275 0.00605 0.0129 0.01185 0.019625 0.01745l0.00685 0.0056c0.016675 0.012775 0.034225 0.024175 0.0526 0.0341 0.00525 0.002875 0.01015 0.005725 0.0162 0.00845 0.025225 0.01255 0.051575 0.0226 0.07875 0.03025l0.007525 0.001925 0.01015 0.00275 0.0089 0.002175 0.009475 0.00205 0.009475 0.001925 0.009 0.0015c0.00675 0.00125 0.0136 0.002275 0.020325 0.0032l0.006625 0.0009 0.01175 0.00125 0.0073 0.0007 0.0121 0.0009h0.00695l0.01255 0.000575h0.0396l0.0113 -0.000575 0.013 -0.0008 0.015875 -0.001475 0.014825 -0.001825c0.0033 0 0.006725 -0.000925 0.01015 -0.001475 0.052275 -0.00765 0.10315 -0.022375 0.1513 -0.043825 0.010275 -0.00435 0.020425 -0.009125 0.0298 -0.01415 0.020075 -0.01005 0.039575 -0.02135 0.0583 -0.033775 0.026125 -0.017125 0.050775 -0.0364 0.07395 -0.0574l0.016075 -0.0153c0.002525 -0.0025 0.00515 -0.0049 0.007525 -0.007525 0.01575 -0.01575 0.0306 -0.0324 0.0444 -0.04985 0.024425 -0.030825 0.0461 -0.063575 0.064925 -0.098025 0.2233 -0.406 0.45735 -0.80605 0.701875 -1.199275l0.03355 -0.053725 0.033875 -0.053875c0.017 -0.02715 0.034025 -0.054075 0.051025 -0.080675l0.017225 -0.0268 0.03435 -0.053525c0.0461 -0.071325 0.0923 -0.141825 0.13885 -0.211675l0.0348 -0.052025c0.06985 -0.103375 0.139575 -0.204025 0.208475 -0.29975l0.034475 -0.04725c0.074975 -0.1036 0.153125 -0.204825 0.23425 -0.303625l0.0323 -0.038575c0.00525 -0.0065 0.01015 -0.012775 0.015975 -0.01905l0.0316 -0.036625c0.00525 -0.00605 0.010275 -0.012 0.01575 -0.0178l0.030575 -0.034575 0.015425 -0.016675c0.014825 -0.016075 0.029875 -0.03195 0.045175 -0.0477 0.010275 -0.01015 0.01975 -0.020425 0.029675 -0.0299 0.05785 -0.0592 0.121625 -0.112275 0.190425 -0.15825l0.015875 -0.01015 0.016075 -0.010275c0.010275 -0.0064 0.020675 -0.01255 0.031275 -0.018375 0.26975 -0.153025 0.493175 -0.164325 0.62165 -0.035825 0.07795 0.077925 0.12095 0.206975 0.118675 0.386475 0 0.007975 0 0.01585 -0.000675 0.024075v0.0089c0 0.0081 -0.0007 0.016425 -0.001275 0.02475 0 0.010175 -0.00125 0.020425 -0.002275 0.0306 -0.001025 0.01025 -0.001475 0.018025 -0.0025 0.027025 0 0.002625 -0.000575 0.00525 -0.000925 0.007875 -0.0008 0.008 -0.001825 0.0161 -0.00285 0.024075 0 0.002525 0 0.004925 -0.001025 0.007425 -0.00115 0.01085 -0.00275 0.021675 -0.004675 0.0324 -0.00125 0.009925 -0.00285 0.019875 -0.0048 0.0298 -0.0008 0.0057 -0.001925 0.011275 -0.00285 0.017 -0.002975 0.0162 -0.00685 0.032275 -0.011525 0.048025 -0.008775 0.02945 -0.0195 0.058325 -0.032175 0.086375 -0.005475 0.012225 -0.0113 0.024425 -0.017225 0.0364 -0.012325 0.024775 -0.02625 0.0501 -0.04155 0.07635 -0.007625 0.0129 -0.0155 0.02625 -0.02395 0.0396l-0.012775 0.0203c-0.013025 0.020425 -0.0266 0.041075 -0.04075 0.061975 -0.01415 0.020875 -0.029325 0.0422 -0.045625 0.063775 -0.021125 0.02875 -0.043375 0.058075 -0.066875 0.08775l-0.0178 0.022475c-0.050325 0.06265 -0.1019 0.124275 -0.154625 0.18485l-0.041875 0.04735 -0.021325 0.023975c-0.0291 0.032525 -0.058325 0.0648 -0.08775 0.096875l-0.0226 0.024425c-0.01495 0.0162 -0.030575 0.032625 -0.045525 0.04895 -0.0153 0.01655 -0.030825 0.032975 -0.046325 0.0494l-0.047025 0.049525 -0.047575 0.049625c-0.01585 0.01655 -0.031825 0.033325 -0.047925 0.049875l-0.096875 0.09985c-0.4627 0.474575 -0.950275 0.947525 -1.115275 1.242625 -0.01095 0.019275 -0.0209 0.039025 -0.0299 0.059225 -0.0234 0.053625 -0.0332 0.0995 -0.0266 0.136575 0.002175 0.0122 0.006525 0.02395 0.0128 0.034575 0.00935 0.016075 0.02065 0.030925 0.03365 0.04415 0.00605 0.00595 0.012325 0.011525 0.019175 0.01655 0.033875 0.0242 0.074975 0.036625 0.116625 0.035375h0.013l0.01335 -0.0009 0.013475 -0.0016 0.01105 -0.0016c0.0015 -0.000125 0.002975 -0.000475 0.00445 -0.0008l0.01015 -0.00195 0.00275 -0.000675 0.011175 -0.0024 0.015975 -0.0041 0.014275 -0.004225c0.00935 -0.00285 0.0187 -0.00605 0.0283 -0.0096 0.02065 -0.0073 0.04085 -0.01575 0.060575 -0.0252 0.005025 -0.0024 0.010175 -0.0047 0.015075 -0.007325l0.015175 -0.007525c0.01985 -0.010025 0.0396 -0.020875 0.05945 -0.032625 0.01585 -0.00935 0.0316 -0.01895 0.04735 -0.0291l0.0153 -0.01015c0.005025 -0.0032 0.01015 -0.0065 0.015175 -0.010275l0.015175 -0.01015 0.007975 -0.0056 0.021925 -0.015275c0.020425 -0.01415 0.039475 -0.02865 0.058875 -0.043375l0.0017 -0.00125 0.030575 -0.023725c0.0419 -0.0331 0.0817 -0.066425 0.11765 -0.0978l0.023975 -0.0211 0.002275 -0.002075 0.01245 -0.01105c0.029425 -0.026375 0.055675 -0.051025 0.077575 -0.07145l0.0089 -0.00865 0.021575 -0.020425 0.0129 -0.012575 0.00445 -0.00455 0.00125 -0.00125c0.01095 -0.01095 0.01095 -0.01095 0.0219 -0.022025l0.000925 -0.000925 0.0041 -0.00365c0.00125 -0.001375 0.002975 -0.002725 0.0049 -0.00445l0.0016 -0.001475 0.00435 -0.003875 0.02315 -0.020425 0.013 -0.01175c0.0064 -0.0055 0.013375 -0.011775 0.020425 -0.0185l0.01565 -0.0137c0.002725 -0.002275 0.005475 -0.0049 0.008325 -0.0074l0.016325 -0.014275 0.024075 -0.021 0.01265 -0.01105c0.04965 -0.04325 0.110125 -0.0954 0.179375 -0.154175l0.028425 -0.02395 0.047 -0.039375 0.047925 -0.04015c0.062775 -0.05205 0.130325 -0.107375 0.20175 -0.1649l0.0469 -0.03765c0.039925 -0.031725 0.081025 -0.06425 0.12255 -0.096875 0.01665 -0.013125 0.03365 -0.02625 0.051 -0.03925 0.042575 -0.032875 0.08535 -0.065625 0.12825 -0.0979 0.097925 -0.07395 0.1989 -0.148 0.301025 -0.220225l0.043925 -0.030475c0.030575 -0.021225 0.061175 -0.042325 0.09185 -0.063l0.02775 -0.018825c0.054875 -0.03695 0.110225 -0.073125 0.166025 -0.1085l0.027725 -0.017475 0.0275 -0.0171c0.0275 -0.017 0.055 -0.0339 0.08215 -0.0502l0.027275 -0.016225 0.05465 -0.031825c0.017925 -0.010375 0.035725 -0.02055 0.053525 -0.030575l0.010725 -0.00605 0.04245 -0.023175c0.017575 -0.009575 0.03525 -0.018825 0.0527 -0.027825l0.02625 -0.013475 0.025325 -0.0129c0.057975 -0.0291 0.116975 -0.056025 0.177 -0.080675 0.0082 -0.003425 0.0163 -0.006725 0.0244 -0.01025 0.0161 -0.00675 0.032075 -0.0129 0.047925 -0.018375 0.015875 -0.005375 0.0315 -0.01095 0.0469 -0.01645 0.01405 -0.004675 0.027625 -0.009 0.04085 -0.013125l0.00445 -0.00135c0.007075 -0.002175 0.01415 -0.004225 0.021225 -0.00605l0.00205 -0.000575c0.0144 -0.0041 0.028775 -0.007875 0.04325 -0.0113h0.00115c0.021325 -0.005125 0.0421 -0.009475 0.062425 -0.0129 0.00695 -0.001125 0.0138 -0.002275 0.020425 -0.003175 0.019725 -0.002975 0.039575 -0.005025 0.05945 -0.0064 0.01255 -0.0009 0.0252 -0.00125 0.03775 -0.00125h0.0096c0.012775 0 0.0251 0.0008 0.0373 0.00205 0.0056 0 0.0112 0.001025 0.016675 0.001825h0.002275c0.005475 0.000575 0.011075 0.001475 0.016425 0.002625 0.005375 0.00115 0.01085 0.00195 0.0161 0.0032h0.001825c0.00525 0.001125 0.01015 0.002625 0.015625 0.0041 0.0436 0.01175 0.08365 0.0339 0.11685 0.064475l0.002975 0.002975 0.0058 0.0057 0.005725 0.00605c0.04575 0.04815 0.083625 0.10325 0.11215 0.163275l0.00445 0.01015c0.0097 0.022825 0.01735 0.04645 0.022725 0.07065 0.014825 0.067425 0.010825 0.137725 -0.01165 0.202975 -0.0097 0.028425 -0.021575 0.05605 -0.0356 0.0825l-0.00935 0.0169c-0.0356 0.059675 -0.0776 0.11525 -0.1254 0.165675l-0.010275 0.01085c-0.022475 0.02385 -0.045875 0.047 -0.06995 0.06925 -0.00765 0.0072 -0.015525 0.014375 -0.0235 0.021575l-0.0121 0.01095c-0.0251 0.02225 -0.050775 0.043925 -0.0768 0.06515 -0.004575 0.00365 -0.00925 0.007325 -0.0137 0.0112 -0.018125 0.0146 -0.03685 0.029425 -0.05625 0.044275 -0.066875 0.0511 -0.134975 0.1004 -0.20435 0.147975 -0.04085 0.027975 -0.083075 0.05615 -0.126675 0.0848 -0.08125 0.053275 -0.16305 0.105425 -0.245675 0.15655 -0.02385 0.014725 -0.0478 0.029675 -0.072225 0.0445 -0.22445 0.138075 -0.4733 0.285725 -0.738725 0.446275l-0.0687 0.04175c-0.0752 0.045875 -0.14615 0.0897 -0.212925 0.13135l-0.03365 0.021225 -0.063675 0.04085c-0.025225 0.015975 -0.04975 0.031725 -0.0736 0.047225 -0.018025 0.011525 -0.0356 0.02295 -0.052825 0.03425l-0.034 0.02235c-0.01655 0.01085 -0.032975 0.0217 -0.049425 0.03275l-0.015975 0.01015c-0.016875 0.0113 -0.0333 0.022375 -0.049275 0.033325l-0.02615 0.0178 -0.030675 0.02135 -0.0283 0.019725c-0.044725 0.0314 -0.0889 0.06345 -0.132725 0.0961l-0.015275 0.011625c-0.017225 0.013 -0.0339 0.026025 -0.049975 0.038675l-0.021 0.016775c-0.035375 0.028425 -0.06745 0.0557 -0.096425 0.0817l-0.01415 0.013025c-0.0081 0.0074 -0.016075 0.014825 -0.023625 0.022125 -0.00535 0.005025 -0.010275 0.01015 -0.015625 0.015175l-0.007425 0.0073c-0.0163 0.016325 -0.032175 0.0331 -0.047575 0.050325l-0.007525 0.008675c-0.016775 0.0194 -0.031375 0.038 -0.044275 0.05615l-0.0057 0.0082c-0.01485 0.021675 -0.027975 0.044625 -0.03915 0.068475l-0.003875 0.008325 -0.0024 0.005825 -0.00195 0.005025 -0.002625 0.00695c-0.000775 0.0024 -0.002375 0.006625 -0.0033 0.010275 -0.004675 0.013575 -0.0081 0.0276 -0.010375 0.041875l-0.00115 0.00765 -0.0009 0.00695 -0.000575 0.006725v0.03585c0 0.00295 0 0.00605 0.000675 0.009125 0.000125 0.001825 0.00035 0.00365 0.000575 0.005475 0 0.00295 0.0008 0.005925 0.00115 0.009l0.00215 0.01255v0.000575c0.0008 0.004 0.0016 0.008 0.002625 0.012 0.001025 0.003975 0.002075 0.008425 0.003325 0.01265 0.00365 0.0129 0.0081 0.025675 0.013225 0.038125 0 0.0009 0.0008 0.001925 0.00115 0.00285 0.001375 0.003075 0.002625 0.006275 0.0041 0.00935 0.0056 0.013 0.011875 0.025675 0.018725 0.0381l0.007175 0.0129 0.007525 0.013025 0.007875 0.013c0.001375 0.002175 0.00285 0.0041 0.004575 0.00605l0.002625 0.002725 0.002725 0.002525 0.0031 0.0024c0.00205 0.001475 0.004225 0.002725 0.0065 0.003975 0.002275 0.001025 0.0048 0.002175 0.0073 0.0031 0.002725 0.0009 0.005475 0.0017 0.008225 0.002375 0.065825 0.01485 0.20115 -0.0397 0.380875 -0.134625l0.0323 -0.017125 0.05465 -0.029775 0.026825 -0.01485c0.018925 -0.01025 0.03845 -0.021675 0.0582 -0.032975l0.03615 -0.020425c0.2377 -0.1368 0.5217 -0.31265 0.815175 -0.48425 0.0274 -0.0161 0.055 -0.032075 0.082625 -0.04805l0.05545 -0.035375c0.027725 -0.015975 0.05535 -0.031725 0.083075 -0.04725 0.118 -0.067075 0.237575 -0.13155 0.3584 -0.193275l0.0542 -0.0275c0.036075 -0.0178 0.071775 -0.03515 0.10705 -0.05205 0.06835 -0.0324 0.137375 -0.0631 0.2071 -0.0922l0.038225 -0.0155 0.004675 -0.001825c0.202425 -0.080225 0.386025 -0.129875 0.5346 -0.129875 0.032175 -0.000225 0.064225 0.0024 0.09595 0.007875h0.000925c0.010275 0.001825 0.0195 0.0039 0.028875 0.006275h0.0017c0.0137 0.003325 0.02715 0.00755 0.040175 0.0128 0.010375 0.00375 0.020425 0.0082 0.030125 0.01345 0.04255 0.021575 0.07895 0.0534 0.1061 0.09265 0.0023 0.003325 0.00445 0.00675 0.0065 0.010275 0.01005 0.0153 0.018725 0.031375 0.0258 0.048275 0.004225 0.0097 0.0081 0.019725 0.01175 0.030575 0.00365 0.01095 0.00685 0.02145 0.01015 0.03275 0.0242 0.0865 0.0218 0.178 -0.006825 0.263125v-0.00035Z" stroke-width="0.25"></path>
  <path fill="#ffd21e" d="M20.52155 11.531125v-0.055925c0 -4.77535 -3.8705 -8.647 -8.647025 -8.647 -4.77535 0 -8.64815 3.87165 -8.64815 8.647l-0.000225 0.018725 0 0.0372c0.000675 0.0186 0.000875 0.0372 0.0007 0.0558l0.000675 0.041075 0.000225 0.014825 0.000575 0.020325c0.000225 0.01095 0.000575 0.0218 0.000575 0.03275l0.001125 0.044375 0.00185 0.05215 0.00055 0.017125 0.0023 0.053975v0.0025l0.003175 0.0631v0.0016c0.00115 0.021575 0.0023 0.043125 0.00365 0.064575 0.00115 0.019975 0.0024 0.039825 0.003775 0.059675l0.00035 0.00355c0.001 0.017 0.00215 0.034125 0.003425 0.051125l0.000325 0.00445c0.00115 0.016425 0.0024 0.032975 0.003775 0.0493l0.000225 0.003175 0.002275 0.028525c0.00685 0.082275 0.014825 0.16455 0.023975 0.2466l0.000575 0.005125 0.00685 0.06025 0.007875 0.06345c0.005275 0.042225 0.0109 0.084325 0.016875 0.126425 0.00355 0.02545 0.00725 0.050775 0.011075 0.0761l0.000575 0.0031c0.008525 0.057275 0.0177 0.11455 0.0276 0.1716 0.028375 0.165575 0.061725 0.33035 0.09995 0.493975l0.000575 0.002625 0.00365 0.0154c0.003425 0.0146 0.00685 0.029225 0.0105 0.043925l0.006275 -0.007625c0.25105 -0.3001 0.611175 -0.465575 1.014075 -0.465575 0.322925 0 0.6543 0.1067 0.986225 0.317225 0.220225 0.1399 0.463725 0.387725 0.7143 0.69935 0.231875 -0.3221 0.55685 -0.53605 0.9286 -0.594475 0.070975 -0.0112 0.14265 -0.0169 0.2143 -0.017 0.848625 0 1.36015 0.736425 1.553 1.39895 0.095275 0.223875 0.555125 1.2426 1.248325 1.93295 1.053775 1.052875 1.317925 2.1395 0.796 3.30225h0.001725c0.0356 0.003875 0.0713 0.007525 0.10715 0.01085 0.021325 0.00205 0.042675 0.0041 0.064 0.005925l0.007525 0.0007c0.01565 0.001475 0.031375 0.00285 0.047125 0.003975l0.043375 0.00355c0.0413 0.0032 0.082725 0.00605 0.124375 0.008775l0.03285 0.00195 0.02615 0.001475 0.0163 0.000925 0.0509 0.002725 0.013925 0.000575 0.053625 0.002275 0.05945 0.0023 0.047925 0.00135 0.007975 0.00035c0.01005 0.00035 0.020325 0.0008 0.030475 0.0008l0.01085 0.000225c0.067325 0.0016 0.134525 0.0024 0.20185 0.0024h0.071425l0.051125 -0.000575c0.01255 -0.000675 0.024975 -0.000675 0.03755 -0.000675h0.01985l0.017225 -0.00035c0.006725 -0.000225 0.013575 -0.00045 0.0203 -0.00045h0.020425l0.04005 -0.00115 0.06025 -0.00205 0.066425 -0.00285c0.01905 -0.0008 0.038 -0.0017 0.05705 -0.00275l0.020425 -0.001125 0.030225 -0.001725 0.017925 -0.001025 0.01335 -0.0008 0.061275 -0.0041c0.020425 -0.00125 0.04085 -0.00285 0.061275 -0.00445l0.05545 -0.004325 0.03915 -0.003325 0.042775 -0.003875c0.04395 -0.0041 0.08775 -0.00845 0.13135 -0.013 0.02785 -0.0031 0.05545 -0.006175 0.083175 -0.009475l0.048725 -0.005825c-0.51335 -1.158175 -0.2476 -2.239925 0.80195 -3.28855 0.691725 -0.69115 1.151325 -1.710475 1.247175 -1.934125 0.1932 -0.662375 0.703825 -1.39895 1.553 -1.39895 0.071775 0.000125 0.143425 0.005725 0.2143 0.017025 0.371425 0.0584 0.6965 0.272475 0.9287 0.594475 0.2507 -0.311625 0.4941 -0.55945 0.714325 -0.69935 0.331925 -0.210525 0.663525 -0.317225 0.9861 -0.317225 0.35555 0 0.6779 0.12895 0.9213 0.365375 0.01335 -0.05955 0.02625 -0.119125 0.038575 -0.178925 0.007525 -0.0373 0.01495 -0.074725 0.02225 -0.112275 0.0089 -0.0461 0.01735 -0.092425 0.0251 -0.13875 0.00205 -0.01255 0.004225 -0.0251 0.006625 -0.037775 0.00375 -0.019725 0.007075 -0.03925 0.01015 -0.0591l0.00125 -0.007525 0.0081 -0.0517 0.008 -0.052375 0.0001 -0.000575c0.0032 -0.0219 0.0065 -0.043925 0.009475 -0.06595 0.0024 -0.01665 0.004675 -0.033325 0.00685 -0.0501l0.001375 -0.009575 0.007075 -0.05455 0.0058 -0.046425c0.00355 -0.0306 0.006975 -0.061175 0.010275 -0.091875 0.0015 -0.0122 0.00275 -0.024525 0.004 -0.03685l0.00115 -0.009925c0.00215 -0.020425 0.0041 -0.04075 0.005925 -0.061175l0.004575 -0.04745c0.00945 -0.105225 0.0171 -0.210425 0.02305 -0.31585v-0.0007l0.003075 -0.0559 0.000575 -0.01255 0.002275 -0.05305c0.0009 -0.019975 0.0017 -0.040175 0.0024 -0.0606v-0.001475l0.000575 -0.014725c0.00055 -0.01255 0.001025 -0.0251 0.001025 -0.03755l0.000225 -0.005125c0.00045 -0.01165 0.0009 -0.02375 0.0009 -0.035725l0.00035 -0.010275c0.00035 -0.011975 0.000675 -0.02385 0.000675 -0.035825l0.00025 -0.01015c0.000325 -0.0153 0.000675 -0.030475 0.000675 -0.04575l0.0008 -0.056375ZM9.730475 20.17015c0.68475 -1.004375 0.63625 -1.7584 -0.303425 -2.6975 -0.93965 -0.939075 -1.4868 -2.312925 -1.4868 -2.312925s-0.204125 -0.79785 -0.6697 -0.724475c-0.46555 0.07325 -0.807075 1.26545 0.167625 1.9946 0.9747 0.7297 -0.19385 1.22435 -0.56905 0.539725 -0.3753 -0.684875 -1.39895 -2.445325 -1.930675 -2.781925 -0.53105 -0.33675 -0.904525 -0.148 -0.77935 0.546 0.062175 0.344475 0.640475 0.93235 1.181 1.4811 0.548175 0.5574 1.0572 1.074875 0.94845 1.25745 -0.216 0.363775 -0.97675 -0.427325 -0.97675 -0.427325s-2.38255 -2.168025 -2.9005925 -1.6032c-0.4779925 0.520675 0.2591425 0.9633 1.3955175 1.645425 0.09665 0.058075 0.19615 0.117875 0.29805 0.179475 1.299675 0.7869 1.401225 0.99445 1.216375 1.2917 -0.068125 0.11 -0.5032 -0.1512 -1.038375 -0.472525 -0.912275 -0.5477 -2.1155275 -1.27 -2.2855475 -0.623475 -0.1470825 0.559475 0.7379225 0.90225 1.5404475 1.21295 0.66865 0.259025 1.280275 0.495925 1.190125 0.817475 -0.093225 0.3333 -0.5986 0.055325 -1.151325 -0.24865 -0.620175 -0.3413 -1.299685 -0.715225 -1.5221925 -0.29325C1.6339125 19.7484 4.953725 20.6875 4.981125 20.69435c1.0726 0.2782 3.796325 0.867675 4.749125 -0.527525l0.000225 0.003325Zm4.41135 0c-0.68485 -1.004375 -0.63625 -1.7584 0.303425 -2.6975 0.939675 -0.939075 1.4868 -2.312925 1.4868 -2.312925s0.204025 -0.79785 0.669575 -0.724475c0.465575 0.07325 0.8072 1.26545 -0.1676 1.9946 -0.974825 0.729125 0.19385 1.22435 0.56915 0.539725 0.375175 -0.684875 1.39895 -2.445325 1.92955 -2.781925 0.5306 -0.336625 0.904625 -0.148 0.77945 0.546 -0.062175 0.344475 -0.640475 0.932475 -1.181 1.48225 -0.54805 0.557275 -1.057075 1.07475 -0.948325 1.25745 0.215875 0.363775 0.977325 -0.4278 0.977325 -0.4278s2.38255 -2.168025 2.900575 -1.6032c0.478 0.520675 -0.25925 0.963425 -1.395525 1.645425 -0.09665 0.057975 -0.196025 0.11765 -0.297925 0.179375 -1.299675 0.786775 -1.401225 0.99445 -1.216375 1.2917 0.068125 0.11 0.5032 -0.1512 1.03825 -0.4724 0.9124 -0.547725 2.11555 -1.270025 2.28555 -0.6236 0.1471 0.559475 -0.737925 0.90235 -1.540425 1.21295 -0.668675 0.259025 -1.280275 0.4958 -1.190125 0.817475 0.093225 0.3333 0.598375 0.055225 1.150175 -0.248775 0.620175 -0.341275 1.299675 -0.715325 1.5222 -0.29325 0.420375 0.798175 -2.89945 1.7367 -2.92685 1.74355 -1.0726 0.279 -3.796325 0.868475 -4.747975 -0.5267l0.0001 0.00205Z" stroke-width="0.25"></path>
  <path fill="#32343d" d="M14.69075 9.121175c0.134775 0.0477 0.235075 0.19295 0.33045 0.331025 0.12895 0.1868 0.249 0.360475 0.43315 0.26255 0.217375 -0.115475 0.3955 -0.292775 0.512 -0.5096 0.1165 -0.2168 0.166025 -0.46315 0.1424 -0.708125 -0.017575 -0.18315 -0.075525 -0.360125 -0.169775 -0.518175 -0.09425 -0.158025 -0.2224 -0.29325 -0.375075 -0.395825 -0.1528 -0.102575 -0.32645 -0.1699 -0.50835 -0.1973 -0.182 -0.027375 -0.36775 -0.014025 -0.54395 0.03905 -0.235625 0.07095 -0.4449 0.210175 -0.60145 0.40005 -0.15645 0.189875 -0.2532 0.42185 -0.277975 0.6666 -0.024625 0.244875 0.02385 0.491575 0.139325 0.70885 0.08535 0.16055 0.274775 0.084875 0.4747 0.0049 0.156775 -0.06265 0.31995 -0.127925 0.44455 -0.084Zm-5.8628 0.000125c-0.13475 0.0477 -0.235175 0.19295 -0.330575 0.331025 -0.128925 0.186675 -0.248975 0.36045 -0.43315 0.26255 -0.162375 -0.086375 -0.303525 -0.2078 -0.4134 -0.355325 -0.109875 -0.14755 -0.18565 -0.31755 -0.22195 -0.497975 -0.036275 -0.180275 -0.032175 -0.3665 0.0121 -0.544975 0.0444 -0.178575 0.1277 -0.34505 0.243975 -0.487575 0.1165 -0.1424 0.263 -0.2572 0.42915 -0.336275 0.166125 -0.079075 0.3478 -0.12015 0.531725 -0.1206 0.18395 -0.0004 0.365725 0.039975 0.5322 0.118225 0.166475 0.07825 0.313575 0.192475 0.43065 0.334325 0.15655 0.189875 0.2533 0.42185 0.278075 0.666725 0.02465 0.244875 -0.02385 0.491575 -0.13945 0.708825 -0.085575 0.16055 -0.275 0.084775 -0.4749 0.0048 -0.156675 -0.06265 -0.31985 -0.127925 -0.44445 -0.083875v0.000125Zm4.95565 5.334475c0.929175 -0.7321 1.270025 -1.92725 1.270025 -2.66325 0 -0.58195 -0.391625 -0.3988 -1.018425 -0.08855l-0.03525 0.017575c-0.57545 0.284925 -1.3419 0.664225 -2.181725 0.664225 -0.84085 0 -1.606625 -0.3794 -2.181725 -0.664325 -0.6471 -0.320525 -1.052975 -0.5216 -1.052975 0.0712 0 0.759375 0.3631 2.006 1.36015 2.730575 0.13145 -0.267025 0.31655 -0.504025 0.54385 -0.696175 0.227175 -0.19215 0.491675 -0.33525 0.776825 -0.420475 0.0995 -0.029675 0.201975 0.1416 0.30695 0.316875 0.101225 0.169225 0.2046 0.3422 0.309925 0.3422 0.11205 0 0.222275 -0.170475 0.329875 -0.33695 0.1124 -0.1739 0.22195 -0.343475 0.32795 -0.309575 0.53355 0.171275 0.979825 0.5427 1.2449 1.036325l-0.00035 0.000325Z" stroke-width="0.25"></path>
  <path fill="#ff323d" d="M13.777925 14.4591c-0.483925 0.38135 -1.12715 0.63705 -1.964925 0.63705 -0.787 0 -1.402375 -0.2257 -1.874775 -0.569275 0.131575 -0.2669 0.316775 -0.5039 0.54395 -0.695925 0.2272 -0.192175 0.4917 -0.335375 0.776725 -0.420725 0.195475 -0.0583 0.40245 0.6591 0.61675 0.6591 0.229475 0 0.4505 -0.71285 0.65795 -0.64655 0.533325 0.1714 0.979475 0.542825 1.2449 1.036325h-0.000575Z" stroke-width="0.25"></path>
  <path fill="#ffad03" d="M6.603975 10.157275c-0.0883 0.05945 -0.1875 0.100875 -0.291775 0.12185 -0.10435 0.021 -0.2118 0.021225 -0.3162 0.0007 -0.104425 -0.02065 -0.2038 -0.061625 -0.29235 -0.120625 -0.088525 -0.0591 -0.164525 -0.134975 -0.22365 -0.223525 -0.059125 -0.088425 -0.100225 -0.187825 -0.12095 -0.292125 -0.020675 -0.1044 -0.020575 -0.211875 0.00035 -0.3163 0.020925 -0.104275 0.062225 -0.20345 0.121525 -0.291875 0.059325 -0.08835 0.13555 -0.1641 0.224225 -0.222975 0.17835 -0.118325 0.3964 -0.161225 0.60625 -0.119125 0.209825 0.0421 0.394575 0.1657 0.513475 0.343575 0.1189 0.178 0.162475 0.39585 0.121075 0.6058 -0.041425 0.210075 -0.164425 0.39515 -0.341975 0.514625Zm11.570425 0c-0.088325 0.05945 -0.1875 0.100875 -0.291775 0.12185 -0.1043 0.021 -0.2118 0.021225 -0.3162 0.0007 -0.1044 -0.02065 -0.2038 -0.061625 -0.29235 -0.120625 -0.088525 -0.0591 -0.164525 -0.134975 -0.22365 -0.223525 -0.0592 -0.088425 -0.1003 -0.187825 -0.12095 -0.292125 -0.02065 -0.1044 -0.020525 -0.211875 0.00035 -0.3163 0.020875 -0.104275 0.0622 -0.20345 0.121525 -0.291875 0.059325 -0.08835 0.13555 -0.1641 0.224225 -0.222975 0.17835 -0.118325 0.3964 -0.161225 0.60625 -0.119125 0.209825 0.0421 0.39445 0.1657 0.513475 0.343575 0.1189 0.178 0.162475 0.39585 0.121075 0.6058 -0.041425 0.210075 -0.164425 0.39515 -0.341975 0.514625Z" stroke-width="0.25"></path>
</svg>