<svg width="121" height="42" viewBox="0 0 121 42" fill="none" xmlns="http://www.w3.org/2000/svg">
<rect width="121" height="42" fill="white"/>
<path d="M9.17011 2.5531H1V40.3398H9.17011V25.0209H21.4253V40.3398H29.5954V2.5531H21.4253V17.3614H9.17011V2.5531Z" fill="#111212"/>
<path d="M37.2549 14.8083V40.3399H45.425V18.3827L52.0632 11.6077L58.1908 18.3827V40.3399L66.3609 40.4767V14.9451L52.0632 0L37.2549 14.8083Z" fill="#111212"/>
<path d="M87.8073 14.9451L73.5097 0L67.3821 6.12758L79.6372 18.8934V40.3399L87.8073 40.4767V14.9451Z" fill="#111212"/>
<path d="M117.935 12.2551V4.08495C117.935 4.08495 111.511 1.32894 107.211 1.53179C103.243 1.71903 99.971 1.95879 96.9988 4.59563C94.4629 6.8454 93.1234 8.8715 92.9138 12.2551C92.7612 14.717 93.935 16.8507 95.9775 19.4039C98.02 21.9572 100.573 23.5255 106.19 25.5315C111.909 27.5741 112.488 30.4676 111.807 31.6591C110.932 33.191 110.377 33.8037 106.701 34.2122C103.024 34.6207 96.3179 32.1697 93.935 31.1485V39.3185C95.6371 39.8292 100.982 41.4632 106.701 41.8717C112.42 42.2802 117.254 38.4675 118.445 36.7654C120.998 33.7016 120.998 28.5953 119.467 26.0421C117.935 23.489 114.871 19.4039 108.233 17.872C102.922 16.6465 101.594 13.6167 101.594 12.2551C101.594 10.8934 102.616 9.19131 106.701 8.68063C110.786 8.16995 117.935 12.2551 117.935 12.2551Z" fill="#111212"/>
</svg>
