<svg width="392" height="42" viewBox="0 0 392 42" fill="none" xmlns="http://www.w3.org/2000/svg">
<rect width="392" height="42" fill="white"/>
<g clip-path="url(#clip0_2558_1804)">
<path d="M44.2722 4.91269C44.2722 3.22378 45.7015 1.79077 47.3861 1.79077C49.0707 1.79077 50.398 3.22378 50.398 4.91269C50.398 6.6016 49.0197 7.98343 47.3861 7.98343C45.7526 7.98343 44.2722 6.55042 44.2722 4.91269ZM45.123 13.016H49.5642V39.5097H45.123V13.0331V13.016Z" fill="#111212"/>
<path d="M72.0765 12.385C77.1983 12.385 80.9589 15.7799 80.9589 22.1431V39.5269H76.5177V22.7743C76.5177 18.1682 74.1354 16.4111 70.5961 16.4111C65.7295 16.4111 63.2451 20.113 63.2451 25.2139V39.5269H58.8039V13.0333H63.2451V18.0147C63.7216 16.1552 66.1549 12.4021 72.0765 12.4021V12.385Z" fill="#111212"/>
<path d="M101.225 39.527H95.7288L86.1657 13.0333H90.6069L98.5875 35.0744L106.568 13.0333H110.805L101.242 39.527H101.225Z" fill="#111212"/>
<path d="M128.176 12.385C134.898 12.385 140.224 16.5134 140.224 25.6915V27.3293H120.026C120.298 32.413 122.986 36.1832 128.057 36.1832C131.222 36.1832 133.979 34.6479 135.459 31.9354L139.373 33.5219C137.212 37.9233 133.502 40.1922 128.159 40.1922C121.506 40.1922 115.635 34.8867 115.635 26.3568C115.635 17.827 121.506 12.3679 128.159 12.3679L128.176 12.385ZM128.074 16.4111C123.786 16.4111 121.2 19.3794 120.349 23.4055H135.783C135.783 20.4371 133.196 16.4111 128.057 16.4111H128.074Z" fill="#111212"/>
<path d="M155.496 36.1321C158.984 36.1321 161.316 34.9208 161.316 32.2595C161.316 25.2139 145.355 30.6218 145.355 20.3348C145.355 16.4623 148.52 12.385 154.969 12.385C162.626 12.385 165.28 16.7864 165.28 20.0789H160.737C160.737 18.3218 158.729 16.4282 154.918 16.4282C151.48 16.4282 149.796 17.9635 149.796 20.1983C149.796 26.1351 165.808 22.0578 165.808 32.2766C165.808 36.5756 162.473 40.1752 155.122 40.1752C149.779 40.1752 144.759 36.5244 144.759 31.2701L149.523 31.2189C149.523 34.5626 152.859 36.1491 155.496 36.1491V36.1321Z" fill="#111212"/>
<path d="M183.955 36.3538C184.636 36.3538 185.537 36.3027 186.388 36.1491L186.439 39.7487C185.537 40.0217 184.329 40.1752 183.478 40.1752C177.71 40.1752 175.549 37.4798 175.549 32.5495V17.1276H170.784V13.0503H171.993C174.851 13.0503 175.532 12.4191 175.532 9.33133V6.31177H179.973V13.1015H186.797V17.1276H179.973V32.5495C179.973 35.4156 181.351 36.3709 183.938 36.3709L183.955 36.3538Z" fill="#111212"/>
<path d="M204.505 12.385C208.572 12.385 211.754 14.5004 212.911 18.5265V18.4241C213.388 16.5646 216.298 12.385 222.219 12.385C227.341 12.385 231.102 15.7799 231.102 22.1431V39.5269H226.661V22.7743C226.661 18.1682 224.278 16.4111 220.739 16.4111C215.872 16.4111 213.388 20.113 213.388 25.2139V39.5269H208.947V22.7743C208.947 18.1682 206.564 16.4111 203.025 16.4111C198.158 16.4111 195.674 20.113 195.674 25.2139V39.5269H191.233V13.0333H195.674V18.0147C196.151 16.1552 198.584 12.4021 204.505 12.4021V12.385Z" fill="#111212"/>
<path d="M248.389 12.385C255.11 12.385 260.436 16.5134 260.436 25.6915V27.3293H240.238C240.51 32.413 243.199 36.1832 248.27 36.1832C251.435 36.1832 254.191 34.6479 255.672 31.9354L259.585 33.5219C257.424 37.9233 253.715 40.1922 248.372 40.1922C241.718 40.1922 235.848 34.8867 235.848 26.3568C235.848 17.827 241.718 12.3679 248.372 12.3679L248.389 12.385ZM248.287 16.4111C243.999 16.4111 241.412 19.3794 240.561 23.4055H255.995C255.995 20.4371 253.408 16.4111 248.27 16.4111H248.287Z" fill="#111212"/>
<path d="M278.244 12.385C283.366 12.385 287.126 15.7799 287.126 22.1431V39.5269H282.685V22.7743C282.685 18.1682 280.303 16.4111 276.764 16.4111C271.897 16.4111 269.413 20.113 269.413 25.2139V39.5269H264.971V13.0333H269.413V18.0147C269.889 16.1552 272.322 12.4021 278.244 12.4021V12.385Z" fill="#111212"/>
<path d="M304.787 36.3538C305.468 36.3538 306.369 36.3027 307.22 36.1491L307.271 39.7487C306.369 40.0217 305.161 40.1752 304.31 40.1752C298.542 40.1752 296.381 37.4798 296.381 32.5495V17.1276H291.616V13.0503H292.825C295.683 13.0503 296.364 12.4191 296.364 9.33133V6.31177H300.805V13.1015H307.629V17.1276H300.805V32.5495C300.805 35.4156 302.183 36.3709 304.77 36.3709L304.787 36.3538Z" fill="#111212"/>
<path d="M316.727 35.2787H333.795V39.5265H312.065V2.42175H316.71V35.2787H316.727Z" fill="#111212"/>
<path d="M338.71 4.91269C338.71 3.22378 340.139 1.79077 341.824 1.79077C343.508 1.79077 344.836 3.22378 344.836 4.91269C344.836 6.6016 343.457 7.98343 341.824 7.98343C340.19 7.98343 338.71 6.55042 338.71 4.91269ZM339.561 13.016H344.002V39.5097H339.561V13.0331V13.016Z" fill="#111212"/>
<path d="M360.601 36.1321C364.089 36.1321 366.42 34.9208 366.42 32.2595C366.42 25.2139 350.459 30.6218 350.459 20.3348C350.459 16.4623 353.624 12.385 360.073 12.385C367.731 12.385 370.385 16.7864 370.385 20.0789H365.842C365.842 18.3218 363.834 16.4282 360.022 16.4282C356.585 16.4282 354.9 17.9635 354.9 20.1983C354.9 26.1351 370.913 22.0578 370.913 32.2766C370.913 36.5756 367.577 40.1752 360.227 40.1752C354.883 40.1752 349.864 36.5244 349.864 31.2701L354.628 31.2189C354.628 34.5626 357.963 36.1491 360.601 36.1491V36.1321Z" fill="#111212"/>
<path d="M389.059 36.3538C389.74 36.3538 390.642 36.3027 391.493 36.1491L391.544 39.7487C390.642 40.0217 389.434 40.1752 388.583 40.1752C382.814 40.1752 380.653 37.4798 380.653 32.5495V17.1276H375.889V13.0503H377.097C379.956 13.0503 380.636 12.4191 380.636 9.33133V6.31177H385.078V13.1015H391.901V17.1276H385.078V32.5495C385.078 35.4156 386.456 36.3709 389.042 36.3709L389.059 36.3538Z" fill="#111212"/>
<path d="M1 5.79957V11.0028C1 12.8623 2.51444 14.3806 4.3692 14.3806H13.3707C14.3407 14.3806 15.1234 15.1653 15.1234 16.1377V36.1487C15.1234 38.0082 16.6378 39.5265 18.4926 39.5265H26.4221C28.2769 39.5265 29.7913 38.0082 29.7913 36.1487V17.7584C29.7913 15.8989 28.2769 14.3806 26.4221 14.3806H17.4376C16.4677 14.3806 15.6849 13.5958 15.6849 12.6234V5.79957C15.6849 3.94006 14.1705 2.42175 12.3157 2.42175H4.3692C2.51444 2.42175 1 3.94006 1 5.79957Z" fill="#144CE1"/>
</g>
<defs>
<clipPath id="clip0_2558_1804">
<rect width="391" height="38.4184" fill="white" transform="translate(1 1.79077)"/>
</clipPath>
</defs>
</svg>
