<svg width="32" height="32" viewBox="0 0 32 32" fill="none" xmlns="http://www.w3.org/2000/svg">
<path d="M18.6667 24.0002V8.00016C18.6667 7.29292 18.3857 6.61464 17.8856 6.11454C17.3855 5.61445 16.7073 5.3335 16 5.3335H5.33335C4.62611 5.3335 3.94783 5.61445 3.44774 6.11454C2.94764 6.61464 2.66669 7.29292 2.66669 8.00016V22.6668C2.66669 23.0205 2.80716 23.3596 3.05721 23.6096C3.30726 23.8597 3.6464 24.0002 4.00002 24.0002H6.66669" stroke="white" stroke-width="2" stroke-linecap="round" stroke-linejoin="round"/>
<path d="M20 24H12" stroke="white" stroke-width="2" stroke-linecap="round" stroke-linejoin="round"/>
<path d="M25.3334 23.9998H28C28.3536 23.9998 28.6928 23.8594 28.9428 23.6093C29.1929 23.3593 29.3334 23.0201 29.3334 22.6665V17.7998C29.3328 17.4973 29.2294 17.2039 29.04 16.9678L24.4 11.1678C24.2753 11.0117 24.1171 10.8855 23.9371 10.7988C23.7571 10.712 23.5599 10.6668 23.36 10.6665H18.6667" stroke="white" stroke-width="2" stroke-linecap="round" stroke-linejoin="round"/>
<path d="M22.6667 26.6668C24.1394 26.6668 25.3333 25.4729 25.3333 24.0002C25.3333 22.5274 24.1394 21.3335 22.6667 21.3335C21.1939 21.3335 20 22.5274 20 24.0002C20 25.4729 21.1939 26.6668 22.6667 26.6668Z" stroke="white" stroke-width="2" stroke-linecap="round" stroke-linejoin="round"/>
<path d="M9.33335 26.6668C10.8061 26.6668 12 25.4729 12 24.0002C12 22.5274 10.8061 21.3335 9.33335 21.3335C7.86059 21.3335 6.66669 22.5274 6.66669 24.0002C6.66669 25.4729 7.86059 26.6668 9.33335 26.6668Z" stroke="white" stroke-width="2" stroke-linecap="round" stroke-linejoin="round"/>
</svg>
