<svg width="32" height="32" viewBox="0 0 32 32" fill="none" xmlns="http://www.w3.org/2000/svg">
<path d="M24 10.6663V7.99967C24 7.29243 23.7191 6.61415 23.219 6.11406C22.7189 5.61396 22.0406 5.33301 21.3334 5.33301H5.33335C4.62611 5.33301 3.94783 5.61396 3.44774 6.11406C2.94764 6.61415 2.66669 7.29243 2.66669 7.99967V17.333C2.66669 18.0403 2.94764 18.7185 3.44774 19.2186C3.94783 19.7187 4.62611 19.9997 5.33335 19.9997H16" stroke="#111212" stroke-width="2" stroke-linecap="round" stroke-linejoin="round"/>
<path d="M13.3333 25.3337V20.0537V24.2537" stroke="#111212" stroke-width="2" stroke-linecap="round" stroke-linejoin="round"/>
<path d="M9.33331 25.333H16" stroke="#111212" stroke-width="2" stroke-linecap="round" stroke-linejoin="round"/>
<path d="M26.6666 16H24C22.5272 16 21.3333 17.1939 21.3333 18.6667V26.6667C21.3333 28.1394 22.5272 29.3333 24 29.3333H26.6666C28.1394 29.3333 29.3333 28.1394 29.3333 26.6667V18.6667C29.3333 17.1939 28.1394 16 26.6666 16Z" stroke="#111212" stroke-width="2" stroke-linecap="round" stroke-linejoin="round"/>
</svg>
