<svg width="32" height="32" viewBox="0 0 32 32" fill="none" xmlns="http://www.w3.org/2000/svg">
<path d="M20 28V17.3333C20 16.9797 19.8595 16.6406 19.6095 16.3905C19.3594 16.1405 19.0203 16 18.6667 16H13.3333C12.9797 16 12.6406 16.1405 12.3905 16.3905C12.1405 16.6406 12 16.9797 12 17.3333V28" stroke="white" stroke-width="2" stroke-linecap="round" stroke-linejoin="round"/>
<path d="M4 13.3333C3.99991 12.9454 4.08445 12.5622 4.24772 12.2103C4.41099 11.8584 4.64906 11.5464 4.94533 11.296L14.2787 3.29599C14.76 2.8892 15.3698 2.66602 16 2.66602C16.6302 2.66602 17.24 2.8892 17.7213 3.29599L27.0547 11.296C27.3509 11.5464 27.589 11.8584 27.7523 12.2103C27.9156 12.5622 28.0001 12.9454 28 13.3333V25.3333C28 26.0406 27.719 26.7188 27.219 27.2189C26.7189 27.719 26.0406 28 25.3333 28H6.66667C5.95942 28 5.28115 27.719 4.78105 27.2189C4.28095 26.7188 4 26.0406 4 25.3333V13.3333Z" stroke="white" stroke-width="2" stroke-linecap="round" stroke-linejoin="round"/>
</svg>
