<svg width="146" height="42" viewBox="0 0 146 42" fill="none" xmlns="http://www.w3.org/2000/svg">
<g clip-path="url(#clip0_2547_1846)">
<rect width="146" height="42" fill="white"/>
<g clip-path="url(#clip1_2547_1846)">
<mask id="mask0_2547_1846" style="mask-type:luminance" maskUnits="userSpaceOnUse" x="-1" y="0" width="148" height="43">
<path d="M-0.00805664 0.00134277H146.295V42.468H-0.00805664V0.00134277Z" fill="white"/>
</mask>
<g mask="url(#mask0_2547_1846)">
<path fill-rule="evenodd" clip-rule="evenodd" d="M51.6622 8.62659H48.9338V19.4985H51.1475C53.2584 19.4985 54.5453 18.5883 54.5453 15.7566V12.2674C54.5453 9.73901 53.6702 8.62659 51.6622 8.62659Z" fill="#111212"/>
</g>
<mask id="mask1_2547_1846" style="mask-type:luminance" maskUnits="userSpaceOnUse" x="-1" y="0" width="148" height="43">
<path d="M-0.00805664 0.00134277H146.295V42.468H-0.00805664V0.00134277Z" fill="white"/>
</mask>
<g mask="url(#mask1_2547_1846)">
<path fill-rule="evenodd" clip-rule="evenodd" d="M134.335 39.3733C128.775 39.3733 125.892 36.1369 125.892 30.4736V28.299H131.246V30.8275C131.246 33.3558 132.379 34.2661 134.181 34.2661C135.982 34.2661 137.115 33.3558 137.115 30.8275C137.115 23.5457 126.046 22.1805 126.046 12.0671C126.046 6.40348 128.878 3.16716 134.386 3.16716C139.895 3.16716 142.727 6.40348 142.727 12.0671V13.1795H137.372V11.713C137.372 9.18476 136.343 8.22397 134.541 8.22397C132.739 8.22397 131.709 9.18476 131.709 11.713C131.709 18.9948 142.778 20.36 142.778 30.4736C142.778 36.1369 139.895 39.3733 134.335 39.3733ZM125.621 8.62847H119.701V38.9688H114.038V8.62847H108.117V3.5718H125.621V8.62847ZM113.129 38.9688H98.1479V3.5718H103.811V33.912H113.129V38.9688ZM91.797 38.9688H83.3537L77.7937 3.5718H83.5083L87.8328 32.4456L92.1573 3.5718H97.3571L91.797 38.9688ZM69.4861 39.3733C63.926 39.3733 61.0429 36.1369 61.0429 30.4736V28.299H66.3972V30.8275C66.3972 33.3558 67.5298 34.2661 69.3316 34.2661C71.1334 34.2661 72.2661 33.3558 72.2661 30.8275C72.2661 23.5457 61.1974 22.1805 61.1974 12.0671C61.1974 6.40348 64.0289 3.16716 69.5376 3.16716C75.0462 3.16716 77.8776 6.40348 77.8776 12.0671V13.1795H72.5236V11.713C72.5236 9.18476 71.4939 8.22397 69.6921 8.22397C67.89 8.22397 66.8604 9.18476 66.8604 11.713C66.8604 18.9948 77.9292 20.36 77.9292 30.4736C77.9292 36.1369 75.0462 39.3733 69.4861 39.3733ZM55.1019 38.9688C54.7929 38.0587 54.587 37.5022 54.587 34.62V29.0576C54.587 25.7707 53.4543 24.5571 50.8801 24.5571H48.9239V38.9688H43.2608V3.5718H51.807C57.6759 3.5718 60.1985 6.2517 60.1985 11.713V14.4942C60.1985 18.1351 59.0145 20.5117 56.4919 21.6747C59.3234 22.8377 60.25 25.5179 60.25 29.2094V34.6704C60.25 36.3898 60.3016 37.6539 60.8678 38.9688H55.1019ZM-0.0065918 42.4765H146.302V0.00134277H-0.0065918V42.4765Z" fill="#111212"/>
</g>
<mask id="mask2_2547_1846" style="mask-type:luminance" maskUnits="userSpaceOnUse" x="-1" y="0" width="148" height="43">
<path d="M-0.00805664 0.00134277H146.295V42.468H-0.00805664V0.00134277Z" fill="white"/>
</mask>
<g mask="url(#mask2_2547_1846)">
<path fill-rule="evenodd" clip-rule="evenodd" d="M11.9284 23.1176C16.5288 23.1176 20.2693 19.4541 20.2693 14.9362C20.2693 13.1447 19.69 11.4882 18.6952 10.1416C18.989 8.65114 20.1894 7.53433 21.6233 7.53433C23.0644 7.53433 24.2704 8.66558 24.5539 10.1701C23.5726 11.5118 22.996 13.1572 22.996 14.9362C22.996 19.4541 26.7498 23.1176 31.3497 23.1176C33.8279 23.1176 36.0225 22.0536 37.6031 20.3675V36.5266C37.6031 36.7162 37.3966 36.9185 37.2036 36.9185H6.07504C5.88203 36.9185 5.67561 36.7162 5.67561 36.5266V20.3675C7.25632 22.0536 9.45038 23.1176 11.9284 23.1176ZM11.9412 9.03823C15.2573 9.03823 17.9459 11.6783 17.9459 14.9362C17.9459 18.1933 15.2572 20.8347 11.9412 20.8347C8.62442 20.8347 5.93637 18.1933 5.93637 14.9362C5.93637 11.6783 8.62442 9.03823 11.9412 9.03823ZM31.3142 9.03823C34.6309 9.03823 37.3195 11.6783 37.3195 14.9362C37.3195 18.1933 34.6309 20.8347 31.3142 20.8347C27.9981 20.8347 25.3087 18.1933 25.3087 14.9362C25.3087 11.6783 27.9981 9.03823 31.3142 9.03823ZM37.8465 8.54254C38.6127 9.29308 39.2032 10.1575 39.6577 11.1136V5.77982C39.6577 4.5479 38.6321 3.54053 37.3786 3.54053H5.90019C4.6467 3.54053 3.62109 4.5479 3.62109 5.77982V36.6985C3.62109 37.9298 4.6467 38.9365 5.90019 38.9365H37.3786C38.6321 38.9365 39.6577 37.9298 39.6577 36.6985V14.9336H39.655C39.6537 10.4163 35.9253 6.75491 31.3263 6.75491C28.9499 6.75491 26.8069 7.73198 25.2893 9.29959C24.9615 7.76482 23.446 6.60539 21.6253 6.60539C19.8141 6.60539 18.3053 7.75364 17.9674 9.27595C16.4511 7.72277 14.2927 6.75491 11.9284 6.75491C9.45023 6.75491 7.25632 7.8182 5.67561 9.50447V5.9517C5.67561 5.76198 5.88203 5.55852 6.07504 5.55852H37.2036C37.3965 5.55852 37.6031 5.76198 37.6031 5.9517V8.28953C37.6032 8.3725 37.7593 8.45632 37.8465 8.54254Z" fill="#DC3848"/>
</g>
<mask id="mask3_2547_1846" style="mask-type:luminance" maskUnits="userSpaceOnUse" x="-1" y="0" width="148" height="43">
<path d="M-0.00805664 0.00134277H146.295V42.468H-0.00805664V0.00134277Z" fill="white"/>
</mask>
<g mask="url(#mask3_2547_1846)">
<path fill-rule="evenodd" clip-rule="evenodd" d="M12.8755 31.4766C12.8755 31.4766 13.157 31.4363 13.4433 31.5509C13.7288 31.6654 14.3931 31.8543 14.977 31.8543C15.5615 31.8543 17.4866 32.0157 21.6239 28.7448C25.7604 32.0157 27.6917 31.8543 28.2761 31.8543C28.8606 31.8543 29.5309 31.6654 29.8164 31.5509C30.1034 31.4363 30.3837 31.4766 30.3837 31.4766C31.9729 31.6259 34.7663 36.8136 34.7663 36.8136C34.7072 36.2736 32.8973 26.4949 30.1866 25.853C27.4758 25.2098 21.6239 26.919 21.6239 26.919C21.6239 26.919 15.778 25.2098 13.0672 25.853C10.3564 26.4951 8.54993 36.2736 8.4917 36.8136C8.4917 36.8136 11.2861 31.6259 12.8755 31.4766Z" fill="#DC3848"/>
</g>
</g>
</g>
<defs>
<clipPath id="clip0_2547_1846">
<rect width="146" height="42" fill="white"/>
</clipPath>
<clipPath id="clip1_2547_1846">
<rect width="147" height="42.4667" fill="white"/>
</clipPath>
</defs>
</svg>
