<svg width="123" height="42" viewBox="0 0 123 42" fill="none" xmlns="http://www.w3.org/2000/svg">
<g clip-path="url(#clip0_2558_1857)">
<rect width="123" height="42" fill="white"/>
<path d="M60.8118 9.90955H68.882V12.5905H60.8118V15.2767H68.882V20.6439L66.1906 23.3249H58.1254V20.6439H66.1906V17.9577H58.1254V12.5905L60.8118 9.90955Z" fill="#111212"/>
<path d="M70.5615 15.277V23.3251H75.9403L78.6266 20.6442H73.2483V15.277H78.6266V20.6442V23.3251H81.3186V12.5907H73.2483L70.5615 15.277Z" fill="#111212"/>
<path d="M114.935 12.5904L112.249 15.2713V23.3195H117.627L120.314 20.6385H114.935V15.2713H120.314V23.3195H123V12.5851H114.935V12.5904Z" fill="#111212"/>
<path d="M103.505 12.5906H98.1269L95.4349 15.2769V23.325H100.814L103.505 20.6441H98.1269V15.2769H103.505V20.6441V23.325H106.192V7.22339H103.505V12.5906Z" fill="#111212"/>
<path d="M91.0687 20.6442H85.6904V12.5907H82.9984V23.3251H91.0687L93.755 20.6442V12.5907H91.0687V20.6442Z" fill="#111212"/>
<path d="M110.563 7.22339H107.876V9.90432H110.563V7.22339Z" fill="#111212"/>
<path d="M110.563 12.5907H107.876V23.3251H110.563V12.5907Z" fill="#111212"/>
<path d="M19.6289 29.1206L18.071 30.1041L16.6722 28.56C17.6153 28.0366 18.5585 27.513 19.4911 26.9737C21.0543 26.0747 22.591 25.1123 24.1595 24.2134C24.1118 24.187 24.0694 24.1605 24.0218 24.1341C21.2345 22.5689 18.389 21.0407 15.3421 19.999C12.9576 19.063 10.3399 18.8726 7.79645 18.7827L16.6563 28.5495C16.6138 28.5812 16.3224 28.798 15.8296 29.0889C12.8993 30.8233 11.1189 31.0612 8.73434 31.2357C10.9281 31.6905 11.8554 32.2933 15.0665 31.5688C16.1952 31.315 18.0074 30.1517 18.071 30.1094L25.5319 38.332L25.0603 25.7469C23.2322 26.8415 21.4252 27.9678 19.6236 29.11L19.6289 29.1206Z" fill="#111212"/>
<path d="M14.9179 18.8623C18.4417 19.629 21.727 21.1836 24.954 22.7489L24.6573 14.7906L0.245172 9.9099C0.049112 9.87286 -0.0780621 10.1003 0.0544109 10.2483L7.80144 18.7935C10.17 18.3758 12.5652 18.3546 14.9179 18.8676V18.8623Z" fill="#111212"/>
<path d="M52.3125 9.90973L27.9059 14.7904L27.6091 22.7487C30.8362 21.1888 34.1215 19.6342 37.6453 18.8621C39.998 18.3492 42.3878 18.3703 44.7617 18.7881L52.5086 10.2428C52.6413 10.0948 52.5086 9.8674 52.3182 9.9044L52.3125 9.90973Z" fill="#111212"/>
<path d="M28.7373 13.2462C28.7373 13.2462 29.6222 10.1316 28.7638 6.96414C29.4792 7.55108 30.3323 8.39714 30.9947 9.52348C31.922 11.0993 32.1816 12.3049 32.1816 12.3049C32.1816 12.3049 32.5684 10.4541 31.9644 8.78846C31.7683 8.24384 31.2755 6.80022 30.2793 5.85896C31.0582 6.21856 31.9856 6.75262 32.9235 7.55108C34.5184 8.89949 35.4669 10.1104 35.4669 10.1104C35.4669 10.1104 35.1702 8.0376 33.9991 6.55699C32.6585 4.85428 30.841 4.18272 29.5428 3.89717C30.3535 3.79141 31.302 3.78084 32.3194 4.01879C34.3913 4.49999 35.7743 5.56813 35.7743 5.56813C35.7743 5.56813 34.5343 3.6222 32.4996 2.72855C30.9894 2.06228 29.5057 2.05699 28.3452 2.23149C28.4405 2.04641 28.5572 1.8772 28.7108 1.73972C29.0659 1.41187 29.4686 1.2215 29.4686 1.2215C29.4686 1.2215 28.6101 1.0047 27.863 1.28496C27.4762 1.42773 27.1741 1.64453 26.9463 1.84547C26.9198 1.63925 26.8774 1.42244 26.8244 1.18978C26.7343 0.8302 26.3157 0.0687427 26.2786 0C26.2415 0.0634548 25.8176 0.8302 25.7328 1.18978C25.6745 1.42244 25.6375 1.63925 25.611 1.84547C25.3831 1.64453 25.0811 1.43302 24.6942 1.28496C23.9471 1.0047 23.0887 1.2215 23.0887 1.2215C23.0887 1.2215 23.4914 1.41187 23.8464 1.73972C24.0001 1.8772 24.1167 2.04641 24.212 2.23149C23.0515 2.05699 21.5679 2.06228 20.0577 2.72855C18.0229 3.6222 16.783 5.56813 16.783 5.56813C16.783 5.56813 18.1659 4.49999 20.2379 4.01879C21.2605 3.78084 22.2091 3.79141 23.0145 3.89717C21.7163 4.17743 19.8987 4.85428 18.5581 6.55699C17.3923 8.0376 17.0903 10.1104 17.0903 10.1104C17.0903 10.1104 18.0388 8.89949 19.6337 7.55108C20.5717 6.7579 21.499 6.22383 22.2779 5.85896C21.287 6.80022 20.7942 8.24384 20.5929 8.78846C19.9888 10.4541 20.3756 12.3049 20.3756 12.3049C20.3756 12.3049 20.63 11.094 21.5626 9.52348C22.225 8.40247 23.0781 7.55108 23.7934 6.96414C22.935 10.1316 23.8199 13.2462 23.8199 13.2462C23.8199 13.2462 24.3551 10.8455 25.1606 8.8149C25.5049 7.94767 25.8971 7.29729 26.2733 6.8055C26.6495 7.29729 27.0417 7.94767 27.3861 8.8149C28.1915 10.8507 28.7267 13.2462 28.7267 13.2462H28.7373Z" fill="#111212"/>
<path d="M28.536 24.1396C28.4883 24.166 28.4459 24.1925 28.3982 24.2189C29.9667 25.1178 31.5034 26.0749 33.0665 26.9792C33.9991 27.5186 34.9424 28.0473 35.8856 28.5656L34.4866 30.1096L32.9288 29.1261C31.1271 27.9839 29.3202 26.8576 27.4921 25.763L27.0205 38.3482L34.4813 30.1255C34.5449 30.1678 36.3519 31.3311 37.4858 31.5849C40.697 32.3094 41.6243 31.7066 43.818 31.2518C41.4335 31.0773 39.6584 30.8341 36.7228 29.1049C36.23 28.8141 35.9386 28.5973 35.8962 28.5656L44.756 18.7988C42.2125 18.8887 39.5948 19.0738 37.2103 20.015C34.1634 21.0568 31.3179 22.5849 28.5307 24.1502L28.536 24.1396Z" fill="#111212"/>
<path d="M63.0534 38.5173C59.9534 38.5173 58.1254 36.3915 58.1254 32.7852C58.1254 29.1789 59.9534 27.0531 63.0534 27.0531C65.5916 27.0531 67.3032 28.6395 67.6794 31.2781H66.169C65.8195 29.438 64.675 28.354 63.0534 28.354C60.9816 28.354 59.7413 29.9985 59.7413 32.7905C59.7413 35.5825 60.9816 37.227 63.0534 37.227C64.6853 37.227 65.8195 36.1113 66.169 34.2235H67.6794C67.3032 36.9097 65.5807 38.5225 63.0534 38.5225V38.5173Z" fill="#111212"/>
<path d="M76.354 38.3691H74.8436V35.8626H74.8117C74.8117 37.523 73.7999 38.5171 72.0775 38.5171C70.1116 38.5171 68.9512 37.0682 68.9512 34.6094C68.9512 32.1505 70.1168 30.7017 72.0775 30.7017C73.7999 30.7017 74.8117 31.6958 74.8117 33.3562H74.8436V30.8497H76.354V38.3691ZM74.9496 34.6094C74.9496 32.9807 74.1334 31.9232 72.7295 31.9232C71.3251 31.9232 70.5089 32.9172 70.5089 34.6094C70.5089 36.3015 71.3251 37.2956 72.7295 37.2956C74.1334 37.2956 74.9496 36.2381 74.9496 34.6094Z" fill="#111212"/>
<path d="M83.6821 30.9288L83.2267 32.3301C82.9406 32.1662 82.5325 32.0605 82.1403 32.0605C80.8419 32.0605 80.0844 33.0704 80.0844 34.789V38.3636H78.574V30.8495H80.0844V33.7896H80.1158C80.1158 31.8437 81.0061 30.6962 82.5217 30.6962C82.9457 30.6962 83.3852 30.7861 83.6873 30.9236L83.6821 30.9288Z" fill="#111212"/>
<path d="M91.6038 30.855V38.5171C91.6038 40.6904 90.2575 41.986 87.9582 41.986C85.9337 41.986 84.6039 40.9601 84.4079 39.2416L85.8436 39.0459C85.9497 40.1299 86.7339 40.7645 87.9582 40.7645C89.304 40.7645 90.0882 39.966 90.0882 38.607V35.7991H90.0563C90.0563 37.4595 89.0441 38.4537 87.3221 38.4537C85.3563 38.4537 84.1958 37.0207 84.1958 34.5776C84.1958 32.1347 85.3614 30.7017 87.3221 30.7017C89.0441 30.7017 90.0563 31.6958 90.0563 33.3562H90.0882V30.8497H91.5981L91.6038 30.855ZM90.1994 34.5829C90.1994 32.9701 89.3832 31.9284 87.9793 31.9284C86.5749 31.9284 85.7587 32.9226 85.7587 34.5829C85.7587 36.2433 86.5749 37.2375 87.9793 37.2375C89.3832 37.2375 90.1994 36.1957 90.1994 34.5829Z" fill="#111212"/>
<path d="M93.3998 34.6094C93.3998 32.1505 94.8042 30.7017 97.1622 30.7017C99.5202 30.7017 100.925 32.1505 100.925 34.6094C100.925 37.0682 99.5361 38.5171 97.1622 38.5171C94.7882 38.5171 93.3998 37.0682 93.3998 34.6094ZM99.3879 34.6094C99.3879 32.9226 98.5717 31.9232 97.1673 31.9232C95.7634 31.9232 94.9472 32.9172 94.9472 34.6094C94.9472 36.3015 95.7634 37.2956 97.1673 37.2956C98.5717 37.2956 99.3879 36.3015 99.3879 34.6094Z" fill="#111212"/>
</g>
<defs>
<clipPath id="clip0_2558_1857">
<rect width="123" height="42" fill="white"/>
</clipPath>
</defs>
</svg>
