<svg width="146" height="42" viewBox="0 0 146 42" fill="none" xmlns="http://www.w3.org/2000/svg">
<g clip-path="url(#clip0_2547_1847)">
<rect width="146" height="42" fill="white"/>
<g clip-path="url(#clip1_2547_1847)">
<path d="M126.789 4.84135C126.789 6.89456 125.23 8.50727 123.198 8.50727C121.166 8.50727 119.588 6.89456 119.588 4.84135C119.588 2.78814 121.19 1.21875 123.198 1.21875C125.206 1.21875 126.789 2.83147 126.789 4.84135ZM120.486 4.84135C120.486 6.45407 121.639 7.73461 123.22 7.73461C124.8 7.73461 125.891 6.45407 125.891 4.86301C125.891 3.27196 124.76 1.94808 123.198 1.94808C121.637 1.94808 120.486 3.25029 120.486 4.84135ZM122.644 6.74051H121.832V3.11791C122.152 3.05051 122.601 3.00718 123.179 3.00718C123.84 3.00718 124.141 3.11791 124.397 3.27196C124.59 3.42601 124.738 3.71485 124.738 4.06628C124.738 4.46344 124.44 4.77395 124.012 4.90634V4.94967C124.354 5.08205 124.547 5.34683 124.652 5.83305C124.76 6.38426 124.824 6.60571 124.908 6.7381H124.031C123.924 6.60571 123.859 6.27354 123.754 5.85471C123.69 5.45755 123.477 5.27943 123.029 5.27943H122.644V6.74051ZM122.666 4.6873H123.05C123.499 4.6873 123.862 4.53325 123.862 4.15775C123.862 3.82558 123.628 3.60654 123.115 3.60654C122.902 3.60654 122.752 3.6282 122.666 3.64986V4.6873Z" fill="#111212"/>
<path d="M0.711914 30.7441V27.716L9.83055 25.9854V30.7971C9.83055 33.1223 10.5827 34.6363 12.4045 34.6363C14.2263 34.6363 14.8734 33.2306 14.8734 31.7166V30.0413C14.8734 28.2023 14.4985 27.2298 12.4594 25.9854L6.34451 22.3074C2.37614 19.9293 1.03425 17.1708 1.03425 12.9513V10.898C1.03425 4.08371 6.39704 1.21692 12.4069 1.21692C19.3265 1.21692 23.9944 3.75876 23.9944 11.4372V14.2486L15.0357 15.871V11.2206C15.0357 9.38161 14.3911 7.81462 12.4069 7.81462C10.8525 7.81462 9.99292 9.0037 9.99292 10.4648V12.0871C9.99292 13.6541 10.9576 14.9539 12.4069 15.818L18.4693 19.4406C22.8149 22.0354 23.9944 24.5243 23.9944 28.4719V32.0415C23.9944 37.2864 19.9711 41.4506 12.3544 41.4506C5.00262 41.4506 0.711914 37.0698 0.711914 30.7441Z" fill="#111212"/>
<path d="M45.2884 2.13843V9.70858H38.1539V40.5308H29.2502V9.70858H22.1157V2.13843H45.2884Z" fill="#111212"/>
<path d="M52.6364 26.2546H57.1945L55.6401 14.7369C55.4252 13.0062 55.2104 11.6005 54.9978 9.49194H54.8379C54.6755 11.6005 54.4081 13.0062 54.1932 14.7369L52.6364 26.2546ZM59.1262 40.5308L58.0541 32.6357H51.7768L50.7048 40.5308H41.7461L48.988 2.13843H60.8429L68.1374 40.5308H59.1262Z" fill="#111212"/>
<path d="M68.1409 40.5308V2.13843H77.5819L82.7847 17.659C83.267 19.4427 83.8567 21.2816 84.2865 22.9593H84.4465C84.3391 20.3092 84.2865 17.659 84.2865 15.0642V2.14083H92.0107V40.5332H83.5344L77.5795 23.0123C76.9372 20.9567 76.345 19.0647 75.9176 17.2258H75.7576C75.8651 19.6593 75.9176 22.1458 75.9176 24.743V40.5332H68.1409V40.5308Z" fill="#111212"/>
<path d="M102.846 34.1497H104.722C107.296 34.1497 108.638 31.7691 108.638 28.0382V14.1953C108.638 10.3561 107.511 8.51709 104.722 8.51709H102.846V34.1497ZM93.8894 40.5308V2.13843H104.94C113.201 2.13843 117.867 6.62516 117.867 14.6839V27.499C117.867 35.9357 113.306 40.5308 104.885 40.5308H93.8894Z" fill="#111212"/>
<path d="M135.926 10.1064L128.502 11.4785V18.2158H120.46V24.4524H128.502V32.5617L135.928 31.1897V24.4524H143.972V18.2158H135.928V10.1064H135.926Z" fill="#111212"/>
</g>
</g>
<defs>
<clipPath id="clip0_2547_1847">
<rect width="146" height="42" fill="white"/>
</clipPath>
<clipPath id="clip1_2547_1847">
<rect width="146" height="40.5516" fill="white" transform="translate(0 0.734863)"/>
</clipPath>
</defs>
</svg>
