<svg xmlns="http://www.w3.org/2000/svg" width="134" height="46" viewBox="0 0 134 46" fill="none"><path d="M41.8824 9.21387H52.5966V11.2084H48.378V22.4522H46.0657V11.2084H41.8647L41.8824 9.21387ZM52.1377 12.8676H54.1146V14.721H54.1499C54.2205 14.4562 54.344 14.2091 54.5206 13.962C54.6971 13.7149 54.9089 13.4854 55.1736 13.2913C55.4208 13.0794 55.7032 12.9206 56.0209 12.797C56.321 12.6735 56.6387 12.6029 56.9564 12.6029C57.2035 12.6029 57.38 12.6205 57.4683 12.6205C57.5565 12.6382 57.6625 12.6558 57.7507 12.6558V14.6857C57.6095 14.6504 57.4506 14.6327 57.2918 14.6151C57.1329 14.5974 56.9917 14.5798 56.8328 14.5798C56.4798 14.5798 56.1445 14.6504 55.8267 14.7916C55.509 14.9328 55.2443 15.1446 54.9971 15.4094C54.7677 15.6918 54.5735 16.0272 54.4323 16.4332C54.2911 16.8391 54.2205 17.3157 54.2205 17.8452V22.3992H52.1024L52.1377 12.8676ZM67.4588 22.4522H65.376V21.1107H65.3407C65.0759 21.6049 64.6876 21.9756 64.1757 22.2757C63.6638 22.5757 63.1343 22.7169 62.6047 22.7169C61.3515 22.7169 60.4337 22.4169 59.8688 21.7814C59.304 21.1636 59.0216 20.2105 59.0216 18.9573V12.8676H61.1397V18.7454C61.1397 19.5927 61.2986 20.1928 61.6339 20.5282C61.9517 20.8812 62.4106 21.0577 62.9931 21.0577C63.4343 21.0577 63.805 20.9871 64.1051 20.8459C64.4052 20.7047 64.6523 20.5282 64.8288 20.2987C65.0229 20.0693 65.1465 19.7869 65.2348 19.4691C65.323 19.1514 65.3583 18.7984 65.3583 18.4277V12.8676H67.4764V22.4522H67.4588ZM71.0596 19.3809C71.1302 19.9987 71.3597 20.4223 71.7657 20.6871C72.1716 20.9342 72.6659 21.0577 73.2307 21.0577C73.4248 21.0577 73.6543 21.0401 73.9014 21.0048C74.1485 20.9695 74.3957 20.9165 74.6075 20.8283C74.8369 20.74 75.0135 20.6165 75.1547 20.4399C75.2959 20.2634 75.3665 20.0516 75.3488 19.7869C75.3312 19.5221 75.2429 19.2926 75.0488 19.1161C74.8546 18.9396 74.6251 18.816 74.3427 18.6925C74.0603 18.5866 73.7249 18.4983 73.3542 18.4277C72.9836 18.3571 72.6129 18.2689 72.2246 18.1806C71.8363 18.0924 71.4479 17.9864 71.0773 17.8629C70.7066 17.7393 70.3889 17.5805 70.0888 17.351C69.8064 17.1392 69.5593 16.8744 69.4004 16.5391C69.2239 16.2037 69.1356 15.8154 69.1356 15.3211C69.1356 14.7916 69.2592 14.368 69.524 14.015C69.7711 13.6619 70.1064 13.3795 70.4948 13.1677C70.8831 12.9559 71.3244 12.797 71.801 12.7088C72.2775 12.6205 72.7365 12.5852 73.1601 12.5852C73.6543 12.5852 74.1309 12.6382 74.5722 12.7441C75.0134 12.85 75.4371 13.0088 75.7901 13.256C76.1608 13.4854 76.4608 13.8031 76.6903 14.1738C76.9374 14.5445 77.0786 15.0034 77.1492 15.5329H74.9428C74.8369 15.0211 74.6075 14.6857 74.2545 14.5092C73.8838 14.3327 73.4778 14.2444 73.0012 14.2444C72.86 14.2444 72.6659 14.2621 72.4717 14.2797C72.2599 14.315 72.0834 14.3503 71.8892 14.4209C71.7127 14.4915 71.5538 14.5974 71.4303 14.721C71.3067 14.8446 71.2361 15.0211 71.2361 15.2329C71.2361 15.4976 71.3244 15.6918 71.5009 15.8507C71.6774 16.0095 71.9069 16.1331 72.2069 16.2566C72.4893 16.3625 72.8247 16.4508 73.1954 16.5214C73.5661 16.592 73.9544 16.6803 74.3427 16.7685C74.731 16.8568 75.1017 16.9627 75.4724 17.0862C75.843 17.2098 76.1784 17.3687 76.4608 17.5981C76.7433 17.8099 76.9904 18.0747 77.1669 18.3924C77.3434 18.7101 77.4316 19.1161 77.4316 19.575C77.4316 20.1399 77.3081 20.6165 77.0433 21.0224C76.7786 21.4108 76.4432 21.7461 76.0372 21.9932C75.6312 22.2404 75.1547 22.4169 74.6604 22.5404C74.1485 22.6463 73.6543 22.7169 73.1601 22.7169C72.5599 22.7169 71.9951 22.6463 71.4832 22.5051C70.9714 22.3639 70.5124 22.1521 70.1418 21.8873C69.7711 21.6049 69.471 21.2695 69.2592 20.8459C69.0474 20.4399 68.9238 19.9457 68.9062 19.3632H71.042V19.3809H71.0596ZM78.0318 12.8676H79.638V9.97286H81.7562V12.85H83.6625V14.4209H81.7562V19.5397C81.7562 19.7692 81.7738 19.9457 81.7915 20.1222C81.8091 20.2811 81.8621 20.4223 81.915 20.5282C81.9856 20.6341 82.0915 20.7224 82.2151 20.7753C82.3563 20.8283 82.5328 20.8636 82.7799 20.8636C82.9211 20.8636 83.08 20.8636 83.2212 20.8459C83.3624 20.8283 83.5213 20.8106 83.6625 20.7753V22.4169C83.433 22.4522 83.2035 22.4698 82.9741 22.4875C82.7446 22.5228 82.5328 22.5228 82.2857 22.5228C81.7209 22.5228 81.2796 22.4698 80.9442 22.3639C80.6088 22.258 80.3441 22.0991 80.1499 21.905C79.9557 21.6932 79.8322 21.4461 79.7616 21.146C79.691 20.8459 79.6557 20.4752 79.638 20.0869V14.4386H78.0318V12.8323V12.8676ZM85.1452 12.8676H87.1397V14.1738H87.175C87.4751 13.609 87.8811 13.2207 88.4106 12.9735C88.9401 12.7264 89.505 12.6029 90.1404 12.6029C90.8994 12.6029 91.5525 12.7264 92.1173 13.0088C92.6822 13.2736 93.1411 13.6266 93.5118 14.1032C93.8824 14.5621 94.1649 15.1093 94.3414 15.7271C94.5179 16.3449 94.6238 17.0156 94.6238 17.704C94.6238 18.3571 94.5355 18.9749 94.3767 19.575C94.2002 20.1752 93.953 20.7224 93.6177 21.1813C93.2823 21.6402 92.8587 22.0109 92.3291 22.2933C91.7996 22.5757 91.1995 22.7169 90.4934 22.7169C90.1934 22.7169 89.8756 22.6816 89.5756 22.6287C89.2755 22.5757 88.9754 22.4875 88.693 22.3639C88.4106 22.2404 88.1458 22.0815 87.9164 21.8873C87.6693 21.6932 87.4751 21.4637 87.3162 21.2166H87.2809V26H85.1628V12.8676H85.1452ZM92.541 17.6687C92.541 17.2451 92.488 16.8215 92.3644 16.4155C92.2585 16.0095 92.082 15.6565 91.8526 15.3388C91.6231 15.0211 91.3407 14.774 91.023 14.5798C90.6876 14.3856 90.2993 14.2974 89.8756 14.2974C88.9931 14.2974 88.3224 14.5974 87.8634 15.2152C87.4221 15.833 87.1927 16.6626 87.1927 17.6864C87.1927 18.1806 87.2456 18.6219 87.3692 19.0279C87.4927 19.4338 87.6516 19.7869 87.8987 20.0869C88.1282 20.387 88.4106 20.6165 88.746 20.793C89.0813 20.9695 89.452 21.0577 89.8933 21.0577C90.3875 21.0577 90.7759 20.9518 91.1112 20.7577C91.4466 20.5635 91.7114 20.2987 91.9408 19.9987C92.1526 19.6809 92.3115 19.3279 92.3997 18.922C92.488 18.4983 92.541 18.0924 92.541 17.6687ZM96.2653 9.21387H98.3835V11.2084H96.2653V9.21387ZM96.2653 12.8676H98.3835V22.4522H96.2653V12.8676ZM100.272 9.21387H102.39V22.4522H100.272V9.21387ZM108.851 22.7169C108.092 22.7169 107.403 22.5934 106.803 22.3286C106.203 22.0638 105.709 21.7285 105.285 21.2872C104.879 20.8459 104.561 20.2987 104.35 19.6809C104.138 19.0632 104.014 18.3748 104.014 17.6511C104.014 16.9274 104.12 16.2566 104.35 15.6389C104.561 15.0211 104.879 14.4915 105.285 14.0326C105.691 13.5913 106.203 13.2383 106.803 12.9912C107.403 12.7441 108.092 12.6029 108.851 12.6029C109.61 12.6029 110.298 12.7264 110.898 12.9912C111.498 13.2383 111.992 13.5913 112.416 14.0326C112.822 14.4739 113.14 15.0211 113.352 15.6389C113.563 16.2566 113.687 16.9274 113.687 17.6511C113.687 18.3924 113.581 19.0632 113.352 19.6809C113.122 20.2987 112.822 20.8283 112.416 21.2872C112.01 21.7285 111.498 22.0815 110.898 22.3286C110.298 22.5757 109.627 22.7169 108.851 22.7169ZM108.851 21.0401C109.309 21.0401 109.733 20.9342 110.068 20.74C110.421 20.5458 110.686 20.2811 110.916 19.9634C111.145 19.6456 111.304 19.275 111.41 18.8866C111.516 18.4807 111.569 18.0747 111.569 17.6511C111.569 17.2451 111.516 16.8391 111.41 16.4332C111.304 16.0272 111.145 15.6742 110.916 15.3564C110.686 15.0387 110.404 14.7916 110.068 14.5974C109.715 14.4033 109.309 14.2974 108.851 14.2974C108.392 14.2974 107.968 14.4033 107.633 14.5974C107.28 14.7916 107.015 15.0564 106.785 15.3564C106.556 15.6742 106.397 16.0272 106.291 16.4332C106.185 16.8391 106.132 17.2451 106.132 17.6511C106.132 18.0747 106.185 18.4807 106.291 18.8866C106.397 19.2926 106.556 19.6456 106.785 19.9634C107.015 20.2811 107.297 20.5458 107.633 20.74C107.986 20.9518 108.392 21.0401 108.851 21.0401ZM114.322 12.8676H115.929V9.97286H118.047V12.85H119.953V14.4209H118.047V19.5397C118.047 19.7692 118.064 19.9457 118.082 20.1222C118.1 20.2811 118.153 20.4223 118.206 20.5282C118.276 20.6341 118.382 20.7224 118.506 20.7753C118.647 20.8283 118.823 20.8636 119.071 20.8636C119.212 20.8636 119.371 20.8636 119.512 20.8459C119.653 20.8283 119.812 20.8106 119.953 20.7753V22.4169C119.724 22.4522 119.494 22.4698 119.265 22.4875C119.035 22.5228 118.823 22.5228 118.576 22.5228C118.011 22.5228 117.57 22.4698 117.235 22.3639C116.899 22.258 116.635 22.0991 116.44 21.905C116.246 21.6932 116.123 21.4461 116.052 21.146C115.982 20.8459 115.946 20.4752 115.929 20.0869V14.4386H114.322V12.8323V12.8676Z" fill="black"></path><path d="M39.4119 9.21386H29.7215L26.7385 0L23.7378 9.21386L14.0474 9.19621L21.8844 14.8975L18.8838 24.1114L26.7208 18.4101L34.5579 24.1114L31.5749 14.8975L39.4119 9.21386Z" fill="black"></path><path d="M32.2454 16.9803L31.5747 14.8975L26.7383 18.41L32.2454 16.9803Z" fill="white"></path><path d="M6.216 41L3.892 37.01H2.352V41H1.078V31.242H4.228C4.96533 31.242 5.586 31.368 6.09 31.62C6.60333 31.872 6.986 32.2127 7.238 32.642C7.49 33.0713 7.616 33.5613 7.616 34.112C7.616 34.784 7.42 35.3767 7.028 35.89C6.64533 36.4033 6.06667 36.744 5.292 36.912L7.742 41H6.216ZM2.352 35.988H4.228C4.91867 35.988 5.43667 35.82 5.782 35.484C6.12733 35.1387 6.3 34.6813 6.3 34.112C6.3 33.5333 6.12733 33.0853 5.782 32.768C5.446 32.4507 4.928 32.292 4.228 32.292H2.352V35.988ZM16.5956 36.87C16.5956 37.1127 16.5816 37.3693 16.5536 37.64H10.4216C10.4682 38.396 10.7249 38.9887 11.1916 39.418C11.6676 39.838 12.2416 40.048 12.9136 40.048C13.4642 40.048 13.9216 39.922 14.2856 39.67C14.6589 39.4087 14.9202 39.0633 15.0696 38.634H16.4416C16.2362 39.3713 15.8256 39.9733 15.2096 40.44C14.5936 40.8973 13.8282 41.126 12.9136 41.126C12.1856 41.126 11.5322 40.9627 10.9536 40.636C10.3842 40.3093 9.93624 39.8473 9.60958 39.25C9.28291 38.6433 9.11958 37.9433 9.11958 37.15C9.11958 36.3567 9.27824 35.6613 9.59558 35.064C9.91291 34.4667 10.3562 34.0093 10.9256 33.692C11.5042 33.3653 12.1669 33.202 12.9136 33.202C13.6416 33.202 14.2856 33.3607 14.8456 33.678C15.4056 33.9953 15.8349 34.434 16.1336 34.994C16.4416 35.5447 16.5956 36.17 16.5956 36.87ZM15.2796 36.604C15.2796 36.1187 15.1722 35.7033 14.9576 35.358C14.7429 35.0033 14.4489 34.7373 14.0756 34.56C13.7116 34.3733 13.3056 34.28 12.8576 34.28C12.2136 34.28 11.6629 34.4853 11.2056 34.896C10.7576 35.3067 10.5009 35.876 10.4356 36.604H15.2796ZM21.1332 39.824L23.5132 33.328H24.8712L21.8612 41H20.3772L17.3672 33.328H18.7392L21.1332 39.824ZM26.7829 32.082C26.5402 32.082 26.3349 31.998 26.1669 31.83C25.9989 31.662 25.9149 31.4567 25.9149 31.214C25.9149 30.9713 25.9989 30.766 26.1669 30.598C26.3349 30.43 26.5402 30.346 26.7829 30.346C27.0162 30.346 27.2122 30.43 27.3709 30.598C27.5389 30.766 27.6229 30.9713 27.6229 31.214C27.6229 31.4567 27.5389 31.662 27.3709 31.83C27.2122 31.998 27.0162 32.082 26.7829 32.082ZM27.3989 33.328V41H26.1249V33.328H27.3989ZM36.5702 36.87C36.5702 37.1127 36.5562 37.3693 36.5282 37.64H30.3962C30.4429 38.396 30.6995 38.9887 31.1662 39.418C31.6422 39.838 32.2162 40.048 32.8882 40.048C33.4389 40.048 33.8962 39.922 34.2602 39.67C34.6335 39.4087 34.8949 39.0633 35.0442 38.634H36.4162C36.2109 39.3713 35.8002 39.9733 35.1842 40.44C34.5682 40.8973 33.8029 41.126 32.8882 41.126C32.1602 41.126 31.5069 40.9627 30.9282 40.636C30.3589 40.3093 29.9109 39.8473 29.5842 39.25C29.2575 38.6433 29.0942 37.9433 29.0942 37.15C29.0942 36.3567 29.2529 35.6613 29.5702 35.064C29.8875 34.4667 30.3309 34.0093 30.9002 33.692C31.4789 33.3653 32.1415 33.202 32.8882 33.202C33.6162 33.202 34.2602 33.3607 34.8202 33.678C35.3802 33.9953 35.8095 34.434 36.1082 34.994C36.4162 35.5447 36.5702 36.17 36.5702 36.87ZM35.2542 36.604C35.2542 36.1187 35.1469 35.7033 34.9322 35.358C34.7175 35.0033 34.4235 34.7373 34.0502 34.56C33.6862 34.3733 33.2802 34.28 32.8322 34.28C32.1882 34.28 31.6375 34.4853 31.1802 34.896C30.7322 35.3067 30.4755 35.876 30.4102 36.604H35.2542ZM48.4718 33.328L46.0778 41H44.7618L42.9138 34.91L41.0658 41H39.7498L37.3418 33.328H38.6438L40.4078 39.768L42.3118 33.328H43.6138L45.4758 39.782L47.2118 33.328H48.4718ZM52.4522 41.126C51.8642 41.126 51.3369 41.028 50.8702 40.832C50.4035 40.6267 50.0349 40.3467 49.7642 39.992C49.4935 39.628 49.3442 39.2127 49.3162 38.746H50.6322C50.6695 39.1287 50.8469 39.4413 51.1642 39.684C51.4909 39.9267 51.9155 40.048 52.4382 40.048C52.9235 40.048 53.3062 39.9407 53.5862 39.726C53.8662 39.5113 54.0062 39.2407 54.0062 38.914C54.0062 38.578 53.8569 38.3307 53.5582 38.172C53.2595 38.004 52.7975 37.8407 52.1722 37.682C51.6029 37.5327 51.1362 37.3833 50.7722 37.234C50.4175 37.0753 50.1095 36.8467 49.8482 36.548C49.5962 36.24 49.4702 35.8387 49.4702 35.344C49.4702 34.952 49.5869 34.5927 49.8202 34.266C50.0535 33.9393 50.3849 33.6827 50.8142 33.496C51.2435 33.3 51.7335 33.202 52.2842 33.202C53.1335 33.202 53.8195 33.4167 54.3422 33.846C54.8649 34.2753 55.1449 34.8633 55.1822 35.61H53.9082C53.8802 35.2087 53.7169 34.8867 53.4182 34.644C53.1289 34.4013 52.7369 34.28 52.2422 34.28C51.7849 34.28 51.4209 34.378 51.1502 34.574C50.8795 34.77 50.7442 35.0267 50.7442 35.344C50.7442 35.596 50.8235 35.806 50.9822 35.974C51.1502 36.1327 51.3555 36.2633 51.5982 36.366C51.8502 36.4593 52.1955 36.5667 52.6342 36.688C53.1849 36.8373 53.6329 36.9867 53.9782 37.136C54.3235 37.276 54.6175 37.4907 54.8602 37.78C55.1122 38.0693 55.2429 38.4473 55.2522 38.914C55.2522 39.334 55.1355 39.712 54.9022 40.048C54.6689 40.384 54.3375 40.65 53.9082 40.846C53.4882 41.0327 53.0029 41.126 52.4522 41.126Z" fill="black"></path><g clip-path="url(#clip0_343_2271)"><path d="M73.9682 34.3076C73.9305 34.1965 73.8611 34.0989 73.7685 34.0268C73.676 33.9548 73.5644 33.9114 73.4474 33.902L70.0268 33.6302L68.5466 30.3536C68.4995 30.2481 68.4228 30.1584 68.3258 30.0955C68.2289 30.0326 68.1158 29.9991 68.0002 29.999C67.8846 29.999 67.7715 30.0323 67.6745 30.0952C67.5774 30.158 67.5007 30.2475 67.4534 30.353L65.9732 33.6302L62.5526 33.902C62.4377 33.9111 62.3278 33.9531 62.2361 34.023C62.1445 34.093 62.0749 34.1878 62.0357 34.2962C61.9965 34.4046 61.9894 34.5221 62.0152 34.6344C62.041 34.7468 62.0987 34.8493 62.1812 34.9298L64.709 37.394L63.815 41.2652C63.7879 41.3824 63.7966 41.505 63.84 41.6172C63.8834 41.7294 63.9595 41.8259 64.0585 41.8943C64.1575 41.9626 64.2747 41.9997 64.395 42.0006C64.5152 42.0015 64.633 41.9663 64.733 41.8994L68 39.7214L71.267 41.8994C71.3692 41.9673 71.4897 42.0022 71.6124 41.9995C71.735 41.9968 71.8539 41.9566 71.9531 41.8844C72.0522 41.8121 72.1268 41.7112 72.1669 41.5952C72.207 41.4793 72.2106 41.3539 72.1772 41.2358L71.0798 37.3958L73.8014 34.9466C73.9796 34.7858 74.045 34.535 73.9682 34.3076Z" fill="black"></path></g><g clip-path="url(#clip1_343_2271)"><path d="M88.9682 34.3076C88.9305 34.1965 88.8611 34.0989 88.7685 34.0268C88.676 33.9548 88.5644 33.9114 88.4474 33.902L85.0268 33.6302L83.5466 30.3536C83.4995 30.2481 83.4228 30.1584 83.3258 30.0955C83.2289 30.0326 83.1158 29.9991 83.0002 29.999C82.8846 29.999 82.7715 30.0323 82.6745 30.0952C82.5774 30.158 82.5007 30.2475 82.4534 30.353L80.9732 33.6302L77.5526 33.902C77.4377 33.9111 77.3278 33.9531 77.2361 34.023C77.1445 34.093 77.0749 34.1878 77.0357 34.2962C76.9965 34.4046 76.9894 34.5221 77.0152 34.6344C77.041 34.7468 77.0987 34.8493 77.1812 34.9298L79.709 37.394L78.815 41.2652C78.7879 41.3824 78.7966 41.505 78.84 41.6172C78.8834 41.7294 78.9595 41.8259 79.0585 41.8943C79.1575 41.9626 79.2747 41.9997 79.395 42.0006C79.5152 42.0015 79.633 41.9663 79.733 41.8994L83 39.7214L86.267 41.8994C86.3692 41.9673 86.4897 42.0022 86.6124 41.9995C86.735 41.9968 86.8539 41.9566 86.9531 41.8844C87.0522 41.8121 87.1268 41.7112 87.1669 41.5952C87.207 41.4793 87.2106 41.3539 87.1772 41.2358L86.0798 37.3958L88.8014 34.9466C88.9796 34.7858 89.045 34.535 88.9682 34.3076Z" fill="black"></path></g><g clip-path="url(#clip2_343_2271)"><path d="M103.968 34.3076C103.931 34.1965 103.861 34.0989 103.769 34.0268C103.676 33.9548 103.564 33.9114 103.447 33.902L100.027 33.6302L98.5466 30.3536C98.4995 30.2481 98.4228 30.1584 98.3258 30.0955C98.2289 30.0326 98.1158 29.9991 98.0002 29.999C97.8846 29.999 97.7715 30.0323 97.6745 30.0952C97.5774 30.158 97.5007 30.2475 97.4534 30.353L95.9732 33.6302L92.5526 33.902C92.4377 33.9111 92.3278 33.9531 92.2361 34.023C92.1445 34.093 92.0749 34.1878 92.0357 34.2962C91.9965 34.4046 91.9894 34.5221 92.0152 34.6344C92.041 34.7468 92.0987 34.8493 92.1812 34.9298L94.709 37.394L93.815 41.2652C93.7879 41.3824 93.7966 41.505 93.84 41.6172C93.8834 41.7294 93.9595 41.8259 94.0585 41.8943C94.1575 41.9626 94.2747 41.9997 94.395 42.0006C94.5152 42.0015 94.633 41.9663 94.733 41.8994L98 39.7214L101.267 41.8994C101.369 41.9673 101.49 42.0022 101.612 41.9995C101.735 41.9968 101.854 41.9566 101.953 41.8844C102.052 41.8121 102.127 41.7112 102.167 41.5952C102.207 41.4793 102.211 41.3539 102.177 41.2358L101.08 37.3958L103.801 34.9466C103.98 34.7858 104.045 34.535 103.968 34.3076Z" fill="black"></path></g><g clip-path="url(#clip3_343_2271)"><path d="M118.968 34.3076C118.931 34.1965 118.861 34.0989 118.769 34.0268C118.676 33.9548 118.564 33.9114 118.447 33.902L115.027 33.6302L113.547 30.3536C113.499 30.2481 113.423 30.1584 113.326 30.0955C113.229 30.0326 113.116 29.9991 113 29.999C112.885 29.999 112.771 30.0323 112.674 30.0952C112.577 30.158 112.501 30.2475 112.453 30.353L110.973 33.6302L107.553 33.902C107.438 33.9111 107.328 33.9531 107.236 34.023C107.144 34.093 107.075 34.1878 107.036 34.2962C106.997 34.4046 106.989 34.5221 107.015 34.6344C107.041 34.7468 107.099 34.8493 107.181 34.9298L109.709 37.394L108.815 41.2652C108.788 41.3824 108.797 41.505 108.84 41.6172C108.883 41.7294 108.96 41.8259 109.058 41.8943C109.157 41.9626 109.275 41.9997 109.395 42.0006C109.515 42.0015 109.633 41.9663 109.733 41.8994L113 39.7214L116.267 41.8994C116.369 41.9673 116.49 42.0022 116.612 41.9995C116.735 41.9968 116.854 41.9566 116.953 41.8844C117.052 41.8121 117.127 41.7112 117.167 41.5952C117.207 41.4793 117.211 41.3539 117.177 41.2358L116.08 37.3958L118.801 34.9466C118.98 34.7858 119.045 34.535 118.968 34.3076Z" fill="black"></path></g><g clip-path="url(#clip4_343_2271)"><path d="M133.968 34.3076C133.931 34.1965 133.861 34.0989 133.769 34.0268C133.676 33.9548 133.564 33.9114 133.447 33.902L130.027 33.6302L128.547 30.3536C128.499 30.2481 128.423 30.1584 128.326 30.0955C128.229 30.0326 128.116 29.9991 128 29.999C127.885 29.999 127.771 30.0323 127.674 30.0952C127.577 30.158 127.501 30.2475 127.453 30.353L125.973 33.6302L122.553 33.902C122.438 33.9111 122.328 33.9531 122.236 34.023C122.144 34.093 122.075 34.1878 122.036 34.2962C121.997 34.4046 121.989 34.5221 122.015 34.6344C122.041 34.7468 122.099 34.8493 122.181 34.9298L124.709 37.394L123.815 41.2652C123.788 41.3824 123.797 41.505 123.84 41.6172C123.883 41.7294 123.96 41.8259 124.058 41.8943C124.157 41.9626 124.275 41.9997 124.395 42.0006C124.515 42.0015 124.633 41.9663 124.733 41.8994L128 39.7214L131.267 41.8994C131.369 41.9673 131.49 42.0022 131.612 41.9995C131.735 41.9968 131.854 41.9566 131.953 41.8844C132.052 41.8121 132.127 41.7112 132.167 41.5952C132.207 41.4793 132.211 41.3539 132.177 41.2358L131.08 37.3958L133.801 34.9466C133.98 34.7858 134.045 34.535 133.968 34.3076Z" fill="black"></path></g><defs><clipPath id="clip0_343_2271"><rect width="12" height="12" fill="white" transform="translate(62 30)"></rect></clipPath><clipPath id="clip1_343_2271"><rect width="12" height="12" fill="white" transform="translate(77 30)"></rect></clipPath><clipPath id="clip2_343_2271"><rect width="12" height="12" fill="white" transform="translate(92 30)"></rect></clipPath><clipPath id="clip3_343_2271"><rect width="12" height="12" fill="white" transform="translate(107 30)"></rect></clipPath><clipPath id="clip4_343_2271"><rect width="12" height="12" fill="white" transform="translate(122 30)"></rect></clipPath></defs></svg>