<svg width="32" height="32" viewBox="0 0 32 32" fill="none" xmlns="http://www.w3.org/2000/svg">
<path d="M2.66667 28.0003C2.66656 25.9474 3.25885 23.938 4.37246 22.2134C5.48608 20.4888 7.0737 19.1222 8.9448 18.2776C10.8159 17.433 12.891 17.1463 14.921 17.4518C16.951 17.7574 18.8498 18.6423 20.3893 20.0003" stroke="#111212" stroke-width="2" stroke-linecap="round" stroke-linejoin="round"/>
<path d="M13.3333 17.3333C17.0152 17.3333 20 14.3486 20 10.6667C20 6.98477 17.0152 4 13.3333 4C9.65144 4 6.66667 6.98477 6.66667 10.6667C6.66667 14.3486 9.65144 17.3333 13.3333 17.3333Z" stroke="#111212" stroke-width="2" stroke-linecap="round" stroke-linejoin="round"/>
<path d="M21.3333 25.3337L24 28.0003L29.3333 22.667" stroke="#111212" stroke-width="2" stroke-linecap="round" stroke-linejoin="round"/>
</svg>
