<svg width="133" height="42" viewBox="0 0 133 42" fill="none" xmlns="http://www.w3.org/2000/svg">
<rect width="133" height="42" fill="white"/>
<path d="M130.202 37.667C128.566 36.7368 128.062 35.3835 128.062 32.2908V10.8969C128.062 6.76237 125.327 4.24162 121.352 4.04163C118.311 3.8742 116.777 4.71136 116.042 5.28341C115.307 5.85546 115.275 6.26008 115.275 6.49262C115.275 7.16699 115.94 7.03211 117.077 7.66928C118.713 8.59944 119.212 9.95748 119.212 13.0456V18.8266C119.212 18.9289 119.148 19.0963 118.981 18.8638C118.519 18.2546 115.908 15.7012 110.898 15.7012C103.684 15.7012 97.071 21.3473 97.071 29.1467C97.071 36.2719 101.48 41.783 108.994 41.783C112.433 41.783 115.206 40.7412 117.775 37.7834C118.542 36.9089 119.041 35.8346 119.208 35.8346C119.374 35.8346 119.342 36.002 119.411 36.3694C119.846 39.0251 121.482 41.2761 125.923 41.2761C128.959 41.2761 130.498 40.6064 131.233 40.0343C131.968 39.4623 132 39.0577 132 38.8251C132.005 38.1693 131.334 38.2949 130.202 37.667ZM112.682 36.0858C108.407 36.0858 105.667 32.3652 105.667 27.7515C105.667 23.1379 108.407 19.2405 112.414 19.2405C116.62 19.2405 118.991 22.8449 118.991 27.4491C118.991 31.5186 117.322 36.0858 112.682 36.0858ZM94.5985 40.3877C94.5985 41.025 94.3627 41.2946 93.4616 41.2946H79.1351C78.2107 41.2946 77.9981 41.025 77.9981 40.3877C77.9981 39.7507 78.1645 39.4808 79.1351 39.1134C81.8755 38.0344 81.8755 36.7276 81.8755 34.2069V13.0642C81.8755 9.97609 81.3718 8.59478 79.7359 7.68787C78.599 7.05072 77.9334 7.18559 77.9334 6.51121C77.9334 6.27868 77.9658 5.87406 78.7006 5.30201C79.4354 4.72996 80.9698 3.90676 84.0107 4.06024C87.9852 4.26023 90.721 6.78096 90.721 10.9155V34.2069C90.721 36.7276 90.721 38.0344 93.4616 39.1134C94.432 39.4808 94.5985 39.718 94.5985 40.3877ZM75.974 40.3877C75.974 41.025 75.7429 41.2946 74.8417 41.2946H60.5244C59.6002 41.2946 59.3875 41.025 59.3875 40.3877C59.3875 39.7507 59.554 39.4808 60.5244 39.1134C63.2603 38.0344 63.2603 36.7276 63.2603 34.2069V24.7284C63.2603 21.6357 62.7613 20.2591 61.1253 19.3522C59.9883 18.7104 59.3182 18.8451 59.3182 18.1754C59.3182 17.9383 59.3551 17.5337 60.0901 16.9663C60.8248 16.3989 62.3592 15.571 65.4001 15.7198C69.3699 15.9245 72.1105 18.4453 72.1105 22.5751V34.2021C72.1105 36.7229 72.1105 38.0298 74.8509 39.1088C75.8075 39.4808 75.974 39.718 75.974 40.3877ZM60.6769 6.79491C58.0428 6.79491 56.7395 8.30643 52.9637 22.2869L48.6242 38.0996C48.0881 40.1133 47.6214 41.3924 42.2465 41.3924C37.5697 41.3924 36.9689 40.2854 36.5991 38.467L32.0608 17.729C31.8575 16.7988 31.6265 16.25 31.3584 16.25C31.0904 16.25 30.8962 16.5198 30.6236 17.729L25.3458 38.0996C24.8836 40.1133 24.4216 41.3924 18.9683 41.3924C14.2913 41.3924 13.6905 40.4622 13.2561 38.6344L7.47929 14.878C5.97731 8.75756 4.47535 7.43673 2.80699 6.57633C1.67011 6.00428 1 5.97172 1 5.29736C1 5.06481 1.03697 4.66019 1.77179 4.08814C2.5066 3.51609 4.37367 2.81382 6.91547 2.81382C9.45727 2.81382 11.7957 3.45563 13.4964 5.30201C15.1324 7.05072 15.7332 10.0086 16.7315 14.2083L21.6394 34.844C21.8058 35.5835 21.8752 35.6486 21.9723 35.6486C22.0692 35.6486 22.1755 35.5835 22.3419 34.844L27.786 13.9153C29.0845 8.26923 29.8887 5.78104 34.0619 5.78104C38.3691 5.78104 39.2381 8.70641 40.2731 13.9153L44.8946 34.7882C45.0241 35.4905 45.0934 35.6253 45.2597 35.6253C45.4261 35.6253 45.4261 35.5602 45.6248 34.7882L51.1706 14.5339C52.3721 10.1296 53.4813 6.90654 55.279 4.72065C57.3819 2.16736 60.1547 1 63.8612 1C68.27 1 72.1427 3.05101 72.1427 6.24147C72.1246 7.2962 71.6935 8.3011 70.9432 9.03782C70.193 9.77454 69.1841 10.1836 68.136 10.1761C64.7207 10.2226 63.2974 6.79491 60.6769 6.79491Z" fill="black"/>
</svg>
